<?xml version="1.0" encoding="UTF-8"?>
<svg xmlns="http://www.w3.org/2000/svg" version="1.1" viewBox="0 0 50 50">
  <!-- Generator: Adobe Illustrator 29.7.1, SVG Export Plug-In . SVG Version: 2.1.1 Build 8)  -->
  <defs>
    <style>
      .st0 {
        fill: #747475;
      }

      .st1 {
        fill: #fff;
      }

      .st2 {
        display: none;
      }
    </style>
  </defs>
  <g id="Layer_1">
    <path class="st0" d="M25,0C11.19,0,0,11.19,0,25h0c0,13.81,11.19,25,25,25s25-11.19,25-25h0C50,11.19,38.81,0,25,0ZM32.41,13.44c0,.38-.31.7-.69.7h-3.47c-1.53,0-2.78,1.25-2.78,2.79v4.88h5.83c.67,0,1.19.59,1.1,1.26l-.42,3.34c-.07.56-.54.98-1.1.98h-5.42v13.98c-.57.05-1.15.08-1.74.08-1.31,0-2.59-.13-3.82-.38v-13.68h-4.17c-.38,0-.69-.31-.69-.7v-4.18c0-.38.31-.7.69-.7h4.17v-6.28c0-3.85,3.11-6.97,6.95-6.97h4.86c.38,0,.69.31.69.7v4.18Z"/>
  </g>
  <g id="Layer_2" class="st2">
    <g>
      <path class="st1" d="M31.33,14.15h-12.66c-2.5,0-4.52,2.03-4.52,4.52v12.66c0,2.5,2.03,4.52,4.52,4.52h12.66c2.5,0,4.52-2.03,4.52-4.52v-12.66c0-2.5-2.03-4.52-4.52-4.52ZM25.01,31.78c-3.74,0-6.78-3.04-6.78-6.78s3.04-6.78,6.78-6.78,6.78,3.04,6.78,6.78-3.04,6.78-6.78,6.78ZM32.25,19.12c-.75,0-1.36-.61-1.36-1.36s.61-1.36,1.36-1.36,1.36.61,1.36,1.36-.61,1.36-1.36,1.36Z"/>
      <circle class="st1" cx="25.01" cy="25" r="4.52"/>
      <path class="st1" d="M25,0C11.19,0,0,11.19,0,25h0c0,13.81,11.19,25,25,25s25-11.19,25-25h0C50,11.19,38.81,0,25,0ZM38.11,31.78c0,3.5-2.84,6.33-6.33,6.33h-13.57c-3.5,0-6.33-2.84-6.33-6.33v-13.57c0-3.5,2.84-6.33,6.33-6.33h13.57c3.5,0,6.33,2.84,6.33,6.33v13.57Z"/>
    </g>
  </g>
  <g id="Layer_3" class="st2">
    <g>
      <path class="st1" d="M28.46,24.07l-5.99-3c-.69-.35-1.51.16-1.51.93v5.99c0,.77.81,1.28,1.51.93l5.99-2.99c.77-.38.77-1.48,0-1.86Z"/>
      <path class="st1" d="M25,0C11.19,0,0,11.19,0,25h0c0,13.81,11.19,25,25,25s25-11.19,25-25h0C50,11.19,38.81,0,25,0ZM39.63,31.74c0,2.13-1.73,3.85-3.85,3.85H14.23c-2.13,0-3.86-1.73-3.86-3.85v-13.48c0-2.13,1.73-3.85,3.86-3.85h21.55c2.13,0,3.85,1.73,3.85,3.85v13.48Z"/>
    </g>
  </g>
</svg>