<?xml version="1.0" encoding="UTF-8"?>
<svg id="Layer_1" xmlns="http://www.w3.org/2000/svg" version="1.1" viewBox="0 0 213.54 80">
  <!-- Generator: Adobe Illustrator 29.7.1, SVG Export Plug-In . SVG Version: 2.1.1 Build 8)  -->
  <defs>
    <style>
      .st0 {
        fill: #ffe879;
      }

      .st1 {
        fill: #747474;
      }
    </style>
  </defs>
  <circle class="st0" cx="151.54" cy="25.81" r="25.81"/>
  <g>
    <g>
      <g>
        <path class="st1" d="M16.62,77.05L0,38.22h8.19l8.42,19.68,8.42-19.68h8.25l-16.67,38.83h0Z"/>
        <path class="st1" d="M113.43,43.07l-5.48,5.19c-1.79-1.9-5.65-2.89-8.25-2.25-1.27.29-2.13.92-2.6,1.62-.46.75-.69,1.62-.64,2.48.06,1.27.75,2.42,2.02,2.89,1.15.52,3.12.92,5.31,1.44,2.19.52,4.85,1.15,6.98,3.35,2.19,2.19,3.06,5.77,2.48,9.63l-.06.23-.06.23c-1.67,6.29-7.62,9.4-12.98,9.12-5.37-.35-10.67-3.23-13.56-8.31l6.58-3.75c1.44,2.54,4.67,4.33,7.44,4.5,2.08.12,3.52-.17,4.44-1.62.87-1.33,1.1-3.06.29-4.33-.52-.81-1.5-1.38-3.29-1.73-1.85-.4-4.21-.75-6.63-1.85-2.48-1.1-5.08-3.35-6.06-6.69l-.06-.17v-.12c-.75-3.64-.17-7.04,1.56-9.58,1.67-2.54,4.33-4.04,7.04-4.67,1.33-.35,2.71-.52,4.15-.46,4.15,0,8.37,1.62,11.37,4.85h0Z"/>
        <path class="st1" d="M132.53,38.22h12.92c4.38,0,8.19,1.9,10.56,4.73,2.42,2.83,3.46,6.4,3.46,9.87s-1.04,7.1-3.46,9.92c-2.36,2.83-6.17,4.73-10.56,4.73h-5.37v9.58h-7.56v-38.83h0ZM140.09,59.91h5.37c2.42,0,3.75-.81,4.79-2.08,1.04-1.21,1.67-3.06,1.67-5.02s-.64-3.75-1.67-5.02c-1.04-1.21-2.37-2.02-4.79-2.02h-5.37v14.14h0Z"/>
        <path class="st1" d="M195.42,38.22c10.16,0,18.12,8.94,18.12,19.44s-7.96,19.39-18.12,19.39-18.06-8.89-18.06-19.39,7.96-19.44,18.06-19.44h0ZM184.92,57.67c0,6.75,4.85,11.83,10.5,11.83s10.56-5.08,10.56-11.83-4.85-11.89-10.56-11.89-10.5,5.08-10.5,11.89h0Z"/>
      </g>
      <g>
        <g>
          <path class="st1" d="M79.72,33.9c-.04.07-.15.08-.29.04-.07-.02-.14-.05-.22-.09-.07-.03-.12-.1-.19-.14s-.14-.08-.2-.12c-.07-.04-.14-.08-.2-.12-.07-.05-.13-.11-.18-.16-.1-.1-.16-.19-.13-.23s.11,0,.25.04c.07.02.14.06.21.1.07.03.13.08.2.12.07.04.16.04.22.08.07.04.14.08.2.12.07.05.11.13.17.18.11.09.18.15.16.19h0Z"/>
          <g>
            <path class="st1" d="M74.54,26.25c-.01.07-.18.1-.42.07-.11-.02-.25-.05-.39-.09-.12-.03-.24-.1-.37-.15-.12-.04-.25-.09-.37-.14s-.25-.09-.37-.15c-.13-.06-.25-.13-.35-.19-.2-.12-.33-.22-.31-.27.02-.05.17,0,.39.06.11.03.23.08.37.12.12.04.24.1.36.14s.26.05.38.1c.13.04.25.09.36.13.13.05.24.14.35.18.21.09.36.14.35.18h.02Z"/>
            <path class="st1" d="M86.16,30.48c-.01.07-.38.02-.92-.13-.26-.07-.56-.17-.89-.28-.28-.09-.56-.23-.87-.34-.29-.1-.58-.21-.87-.32-.3-.12-.59-.22-.87-.33-.32-.13-.6-.26-.85-.37-.51-.23-.83-.4-.81-.45s.36.06.89.24c.26.08.55.19.87.3.28.1.57.21.87.32.29.11.6.17.88.28.3.11.59.22.87.32.32.12.6.28.85.38.51.21.85.34.84.38h.01Z"/>
            <path class="st1" d="M71.14,21.57c-.01.08-.1.13-.24.14h-.22c-.07,0-.14-.05-.21-.06-.07,0-.14-.02-.21-.04s-.15-.02-.21-.04c-.08-.02-.14-.06-.2-.09-.12-.06-.2-.12-.19-.17s.1-.06.23-.06c.06,0,.14,0,.22,0,.07,0,.14.03.21.04.07,0,.15-.02.22,0s.14.02.21.04c.08.02.14.08.2.11.12.05.2.08.2.12h-.01Z"/>
            <path class="st1" d="M79.7,23.09c0,.08-.25.11-.62.08-.18,0-.38-.04-.61-.07-.19-.03-.39-.09-.6-.13-.2-.04-.4-.07-.6-.11-.21-.04-.41-.08-.6-.13-.22-.06-.42-.12-.59-.18-.35-.11-.57-.22-.56-.27s.25,0,.61.04c.18.03.38.06.6.1.19.04.39.08.59.12.2.04.41.03.6.07.2.04.41.07.59.11.22.05.41.13.58.17.35.08.58.14.58.18h0l.03.02Z"/>
            <path class="st1" d="M85.12,24.02c-.01.08-.23.1-.56.07-.16,0-.34-.04-.54-.07-.17-.03-.35-.09-.53-.12s-.36-.06-.54-.09c-.18-.04-.37-.06-.54-.09-.2-.04-.37-.1-.53-.14-.32-.09-.52-.17-.51-.22,0-.05.22-.04.55,0,.16,0,.34.04.54.06.17.02.35.06.54.09.18.03.37.02.54.05.18.04.37.06.54.1.2.04.37.13.52.17.31.09.52.15.51.19h0Z"/>
            <path class="st1" d="M75.73,18.35c0,.08-.31.15-.82.18-.24.02-.52.03-.83.04-.26,0-.54-.02-.83-.02h-1.66c-.31,0-.59-.03-.83-.05-.5-.03-.82-.08-.82-.13s.32-.07.82-.1c.24,0,.52-.02.83-.03h.83c.29,0,.55-.05.83-.04h.83c.3,0,.59.06.83.07.5.02.82.04.82.08h0Z"/>
            <path class="st1" d="M81.14,18.33c0,.08-.08.14-.21.18-.06.02-.14.03-.22.03-.07,0-.14-.02-.22-.02h-.44c-.08,0-.15-.03-.22-.05-.13-.03-.22-.08-.22-.14s.08-.07.21-.09c.06,0,.14-.02.22-.02h.22c.07,0,.14-.04.22-.04h.22c.08,0,.15.06.22.07.13.02.21.04.22.08h0Z"/>
            <path class="st1" d="M88.4,18.3c.01.08-.3.15-.78.18-.23.02-.5.03-.79.04-.25,0-.52-.02-.79-.02h-1.58c-.29,0-.56-.03-.79-.05-.48-.03-.78-.08-.78-.13s.31-.07.78-.1c.23,0,.5-.02.79-.03h.79c.27,0,.53-.05.79-.04h.79c.29,0,.56.06.79.07.47.02.78.04.79.08h-.01Z"/>
            <path class="st1" d="M73.96,14.64c.02.07-.2.19-.57.28-.17.05-.38.1-.6.14-.19.04-.4.05-.61.09-.2.04-.41.08-.61.11-.21.03-.41.08-.61.11-.22.03-.44.04-.62.06-.37.03-.62.03-.63-.02-.01-.05.22-.11.58-.2.18-.04.38-.09.6-.13.19-.04.4-.07.61-.11.2-.04.4-.12.6-.15.21-.03.41-.08.61-.11.22-.03.44-.02.62-.04.37-.04.61-.07.62-.03h0Z"/>
            <path class="st1" d="M78.66,13.79c.01.07,0,.15-.02.19-.01.02-.03.03-.05.04-.02,0-.04-.02-.06-.01-.02,0-.04.01-.06.01s-.04.01-.06,0c-.02,0-.04-.03-.06-.04-.04-.03-.07-.07-.08-.12-.01-.05,0-.07.04-.1.01-.01.03-.02.05-.03h.06s.03-.05.05-.05h.06s.05.05.07.06c.04.02.06.03.07.07h0v-.02Z"/>
            <path class="st1" d="M83.87,12.84c.02.07-.06.16-.2.22-.06.03-.14.05-.22.08-.07.02-.16,0-.23.02-.08.01-.15.03-.23.04s-.16.03-.23.04h-.24c-.14,0-.24-.04-.25-.09s.08-.09.21-.13c.07-.02.14-.04.23-.07.07-.02.15-.02.23-.04.08-.01.15-.07.22-.08.08-.01.16-.03.23-.04.09,0,.17.03.24.03.14,0,.23,0,.24.04h0v-.02Z"/>
            <path class="st1" d="M70.88,11.86c.03.07-.05.17-.21.26-.07.04-.16.09-.26.13-.08.04-.19.04-.28.08-.09.03-.18.07-.27.1-.1.03-.18.07-.27.09-.1.03-.2.04-.29.05-.17.03-.3.02-.31-.03s.08-.1.24-.19c.08-.04.17-.08.26-.12.08-.03.18-.06.27-.09s.17-.11.26-.14c.09-.03.18-.07.27-.09.1-.03.21-.01.3-.03.17-.03.28-.06.3-.02h-.01Z"/>
            <path class="st1" d="M75.24,10.25c.03.07-.09.19-.3.3-.1.06-.22.11-.35.17-.11.05-.25.07-.37.11s-.24.1-.36.14c-.13.04-.25.1-.37.13-.14.04-.27.07-.38.09-.23.05-.39.06-.41,0s.12-.12.33-.22c.1-.05.22-.1.36-.16.11-.05.24-.09.36-.13.12-.04.23-.13.35-.17.13-.04.25-.09.37-.13.14-.04.28-.04.39-.07.23-.06.37-.09.39-.06h0Z"/>
            <path class="st1" d="M81.5,7.89c.03.07-.18.22-.52.39-.17.08-.37.17-.59.26-.19.08-.4.13-.6.2-.2.08-.4.16-.6.23-.21.07-.41.16-.6.22-.22.07-.43.13-.61.18-.37.1-.62.14-.64.09s.21-.15.56-.31c.17-.08.37-.16.59-.25.19-.08.39-.14.6-.22.2-.07.38-.19.58-.26.21-.07.41-.16.6-.22.22-.08.44-.1.62-.16.37-.11.6-.18.62-.15h-.01Z"/>
            <path class="st1" d="M86.34,6.09c.03.07-.12.2-.39.34-.13.07-.28.13-.45.2-.14.06-.31.09-.47.15-.15.06-.31.12-.46.17-.16.05-.31.12-.46.16-.17.05-.34.09-.48.12-.29.07-.48.1-.5.04-.02-.05.15-.13.42-.26.13-.06.28-.13.45-.19.14-.06.3-.11.46-.17.15-.06.29-.15.45-.21.16-.05.31-.12.46-.16.17-.06.35-.06.48-.1.28-.08.47-.13.48-.1h.01Z"/>
            <path class="st1" d="M70.18,8.4c.04.06-.06.2-.26.35-.09.07-.21.15-.33.23-.11.07-.24.11-.36.18-.11.07-.23.14-.35.2-.12.07-.23.14-.35.2-.13.07-.26.12-.37.17-.22.1-.38.15-.41.11s.09-.15.28-.3c.09-.07.21-.15.33-.24.11-.07.23-.14.35-.21.11-.07.21-.18.33-.24.12-.07.24-.14.35-.2.13-.07.28-.09.39-.14.22-.1.37-.16.39-.13h0v.02Z"/>
            <path class="st1" d="M73.04,6.74c.03.07,0,.16-.08.24-.04.04-.09.07-.14.11-.04.03-.11.04-.16.07-.05.03-.1.07-.15.1-.06.03-.1.07-.16.09-.06.03-.13.04-.19.05-.11.03-.2.01-.22-.03-.02-.05.03-.09.11-.17.04-.04.09-.07.14-.11.05-.03.1-.06.15-.09s.08-.1.13-.13c.06-.03.11-.07.17-.09.07-.03.15-.01.2-.03.11-.03.19-.04.2,0h0Z"/>
            <path class="st1" d="M76.83,4.51c.04.07.04.14.01.2-.01.03-.03.05-.06.07-.02.02-.06.01-.09.03-.02.02-.05.03-.08.04s-.05.03-.08.04h-.1c-.06,0-.12-.03-.14-.07-.03-.05,0-.08.03-.13.02-.02.04-.04.07-.07.02-.02.05-.03.08-.04s.03-.07.06-.08.05-.03.08-.04.08.02.11.02c.06,0,.1,0,.12.02h-.01Z"/>
            <path class="st1" d="M81.12,1.99c.04.06-.1.23-.37.43-.13.09-.28.2-.45.31-.15.09-.32.16-.48.26-.16.09-.31.19-.47.28-.17.09-.32.19-.47.27-.18.09-.35.17-.5.23-.3.14-.51.2-.54.16-.03-.05.15-.17.42-.36.13-.09.29-.19.46-.3.15-.09.31-.18.47-.27s.29-.22.45-.31c.16-.09.32-.19.47-.27.18-.09.36-.14.51-.21.29-.14.49-.24.51-.21h0Z"/>
            <path class="st1" d="M82.76,1.02c.04.06.03.15-.01.21-.02.03-.05.06-.09.09-.03.02-.08.02-.11.04s-.07.04-.1.06c-.04.02-.07.05-.11.06s-.09.01-.13.02c-.08,0-.14-.01-.17-.06s0-.08.06-.14c.02-.03.06-.06.09-.08s.07-.04.1-.06c.03-.02.05-.08.08-.1.04-.02.07-.04.11-.06.04-.02.1,0,.14,0,.07-.01.12-.02.14,0h0v.02Z"/>
          </g>
        </g>
        <g>
          <path class="st1" d="M38.73,33.94c-.04-.06,0-.17.11-.27.05-.05.11-.1.19-.15.06-.04.14-.06.21-.1.07-.04.13-.08.2-.12.07-.04.14-.09.21-.11.08-.03.16-.06.23-.08.14-.04.24-.05.27,0s-.04.11-.15.2c-.05.04-.12.09-.19.14-.06.04-.13.08-.2.12-.07.04-.11.12-.18.15-.07.04-.14.08-.21.11-.08.04-.17.03-.24.06-.13.05-.22.08-.24.05h-.01Z"/>
          <g>
            <path class="st1" d="M43.9,26.3c-.02-.07.11-.18.32-.28.1-.05.23-.1.36-.15.11-.04.25-.06.37-.1.12-.04.24-.09.36-.13.13-.04.25-.1.36-.14.14-.04.27-.07.38-.1.23-.06.39-.07.41-.02.02.05-.11.12-.32.23-.1.05-.22.11-.36.17-.11.05-.24.09-.37.14-.12.05-.23.13-.36.18-.13.04-.25.09-.38.12-.14.04-.28.03-.4.05-.23.04-.39.06-.4.03h.03Z"/>
            <path class="st1" d="M32.28,30.54c-.03-.07.29-.25.8-.47.25-.1.54-.22.86-.34.27-.1.58-.18.88-.29.29-.11.58-.22.87-.32.3-.11.59-.22.87-.32.32-.11.62-.2.88-.28.53-.16.89-.25.91-.2s-.31.19-.82.41c-.25.11-.54.22-.86.35-.27.11-.57.21-.87.32-.29.11-.57.26-.86.36-.3.11-.59.22-.87.31-.32.11-.64.16-.9.24-.53.16-.88.26-.9.22h0Z"/>
            <path class="st1" d="M47.29,21.63c-.01-.07.06-.16.18-.21.06-.03.13-.05.21-.07.07-.02.14,0,.22,0,.07,0,.14-.03.21-.04.07,0,.14-.03.21-.03.08,0,.16,0,.22,0,.13,0,.22.04.23.1s-.07.08-.19.13c-.06.02-.13.04-.21.06-.07.02-.14.02-.21.03s-.13.07-.21.08c-.07,0-.14.03-.21.03-.08,0-.16-.03-.22-.03-.13,0-.22,0-.22-.04h-.01Z"/>
            <path class="st1" d="M38.72,23.14c-.02-.07.2-.18.56-.27.17-.04.37-.09.59-.14.19-.04.4-.05.6-.09s.4-.08.6-.11c.21-.04.4-.09.59-.12.22-.03.43-.06.6-.08.36-.05.6-.06.62,0s-.21.12-.57.23c-.17.05-.37.1-.59.15-.19.04-.39.08-.6.12-.2.04-.39.12-.59.16-.21.03-.41.08-.6.1-.22.03-.43,0-.61.03-.36.03-.6.06-.61.02h.01Z"/>
            <path class="st1" d="M33.31,24.08c-.02-.07.17-.19.49-.28.15-.05.33-.09.53-.14.17-.04.36-.04.54-.08.18-.03.36-.07.54-.09.19-.03.37-.07.54-.09.2-.02.39-.03.55-.04.33-.02.55,0,.55.05s-.2.1-.52.18c-.15.04-.33.07-.53.11-.17.03-.35.06-.54.09-.18.03-.35.11-.53.13-.18.03-.36.07-.53.09-.2.03-.39,0-.55.03-.32.04-.53.07-.54.03h0Z"/>
            <path class="st1" d="M42.68,18.41c0-.08.32-.14.82-.18.24,0,.52-.02.83-.03.26,0,.54.02.83.03h1.66c.3,0,.59.04.83.05.5.04.82.09.82.14s-.32.07-.82.09c-.24,0-.52.02-.83.02h-.83c-.27,0-.55.04-.83.04h-.83c-.3,0-.59-.06-.83-.08-.5-.03-.82-.05-.82-.08h0Z"/>
            <path class="st1" d="M37.27,18.39c0-.08.08-.14.21-.18.06-.02.14-.03.22-.03.07,0,.14.02.22.02h.44c.08,0,.15.03.22.05.13.03.21.08.21.14s-.09.07-.22.09c-.06,0-.14.02-.22.02h-.22c-.08,0-.14.04-.22.04h-.22c-.08,0-.15-.06-.22-.07-.13-.03-.21-.04-.22-.08h.02Z"/>
            <path class="st1" d="M30.02,18.36c0-.08.3-.14.78-.18.23,0,.5-.02.79-.03.25,0,.52.02.79.03h1.58c.29,0,.56.03.79.05.48.04.78.09.79.14,0,.06-.31.07-.78.09-.23,0-.5.02-.79.02h-.79c-.26,0-.53.04-.79.04h-.79c-.29,0-.56-.06-.79-.08-.47-.03-.78-.05-.79-.08h0Z"/>
            <path class="st1" d="M44.45,14.7c0-.08.26-.1.63-.07.18.02.39.04.61.08.19.03.39.1.6.13.2.04.41.07.61.11.21.04.42.07.61.11.22.05.42.11.6.16.36.1.59.19.58.24-.01.05-.25.03-.62-.02-.18-.02-.39-.05-.61-.09-.19-.03-.4-.08-.61-.11-.2-.04-.41-.03-.61-.07-.21-.04-.41-.07-.61-.12-.22-.05-.42-.14-.59-.18-.36-.09-.59-.15-.59-.19h0v.02Z"/>
            <path class="st1" d="M39.75,13.84c.01-.07.05-.14.09-.17.02-.01.04-.02.06-.02s.03.03.05.03.04,0,.06.01c.02,0,.04,0,.05.01.02.01.03.04.05.06.03.04.04.09.03.14s-.03.07-.07.08c-.02,0-.04.01-.06.01s-.03,0-.06-.01c-.02,0-.04.04-.06.03-.02,0-.04,0-.05-.01-.02-.01-.03-.07-.04-.08-.03-.03-.05-.05-.04-.09h-.01Z"/>
            <path class="st1" d="M34.53,12.9c.01-.07.11-.13.26-.13h.24c.07,0,.15.05.23.06s.16.02.23.04c.08.02.16.02.23.05.08.03.16.06.22.09.13.06.21.12.2.18-.01.05-.1.05-.25.05-.07,0-.15,0-.23-.02-.07,0-.15-.03-.23-.04s-.16.02-.24,0c-.08-.02-.16-.03-.23-.05-.08-.02-.15-.09-.22-.11-.13-.05-.22-.08-.21-.12h0Z"/>
            <path class="st1" d="M47.51,11.91c.02-.07.15-.1.33-.07.08.01.18.04.28.07.09.02.17.09.26.12.09.03.18.06.27.1s.19.06.27.1c.1.05.18.1.25.14.15.09.24.17.22.22s-.13.03-.3,0c-.08-.02-.18-.04-.28-.07-.09-.03-.18-.07-.27-.1s-.2-.02-.29-.06c-.09-.04-.19-.07-.27-.1-.1-.04-.17-.12-.25-.17-.15-.08-.25-.14-.24-.17h.02Z"/>
            <path class="st1" d="M43.16,10.3c.02-.07.19-.08.42-.03.11.02.24.06.38.1.12.04.23.11.36.16.12.04.25.09.36.13.12.05.25.09.36.14.13.06.25.13.35.18.21.11.33.21.31.26-.02.05-.17.01-.39-.05-.11-.03-.24-.07-.37-.11-.12-.04-.24-.09-.36-.14-.12-.04-.26-.05-.38-.1-.12-.05-.25-.09-.36-.14-.13-.06-.24-.15-.34-.2-.21-.1-.34-.17-.33-.21h0Z"/>
            <path class="st1" d="M36.9,7.94c.02-.07.28-.05.65.06.18.05.39.12.61.19.19.07.38.17.59.25.2.07.4.15.6.22.2.08.41.15.6.23.22.09.41.19.58.27.35.17.56.3.54.35-.02.05-.26-.02-.62-.13-.18-.06-.38-.12-.6-.2-.19-.07-.39-.15-.6-.23-.2-.07-.41-.11-.61-.19s-.41-.15-.59-.23c-.22-.09-.4-.21-.57-.29-.35-.16-.57-.26-.56-.3h-.02Z"/>
            <path class="st1" d="M32.06,6.14c.02-.07.23-.07.51,0,.14.03.3.08.47.14.15.05.29.13.45.19.15.06.31.11.46.17.16.06.32.11.46.17.17.07.31.15.44.22.26.14.42.25.4.3s-.2,0-.49-.08c-.14-.04-.3-.09-.47-.15-.15-.05-.3-.11-.46-.17-.15-.06-.32-.07-.47-.13-.16-.06-.31-.11-.46-.17-.17-.07-.3-.18-.43-.24-.27-.13-.44-.21-.42-.25h0Z"/>
            <path class="st1" d="M48.2,8.44c.03-.07.2-.05.43.04.11.04.24.1.37.17.11.06.22.15.34.22.12.07.24.13.35.2.12.08.24.14.35.21.12.09.23.18.32.26.19.16.29.29.26.33-.03.04-.17-.03-.38-.14-.1-.05-.22-.12-.35-.19-.11-.06-.22-.14-.34-.21-.11-.07-.25-.1-.37-.17s-.24-.13-.35-.2c-.12-.08-.22-.19-.31-.26-.2-.14-.33-.23-.31-.27h-.01Z"/>
            <path class="st1" d="M45.36,6.79c.03-.07.12-.11.24-.08.06.01.12.03.18.06.06.02.1.08.15.12.05.03.11.06.16.1s.11.06.15.1c.05.04.09.09.13.13.07.08.12.16.09.21-.02.05-.1.03-.21,0-.05-.02-.11-.04-.17-.08-.05-.03-.1-.07-.15-.1s-.13-.03-.17-.06c-.05-.03-.1-.06-.15-.09-.05-.04-.08-.11-.12-.15-.08-.07-.14-.11-.13-.15h0Z"/>
            <path class="st1" d="M41.56,4.56c.04-.07.1-.11.17-.11.03,0,.06,0,.09.02.03,0,.04.05.07.07.03.01.05.03.08.04.02.02.06.03.07.05.02.03.04.06.05.09.03.06.03.12,0,.16s-.07.04-.12.04c-.03,0-.06-.01-.09-.02s-.05-.03-.08-.05c-.03-.01-.07,0-.1,0-.02-.02-.05-.03-.07-.05-.02-.02-.02-.08-.04-.11-.03-.05-.05-.08-.03-.11h0v-.02Z"/>
            <path class="st1" d="M37.27,2.04c.03-.07.25-.02.56.12.14.07.31.15.49.25.15.08.3.2.46.3.16.09.32.18.47.28.16.1.32.19.47.28.17.11.32.22.45.32.27.2.42.35.4.39-.03.05-.22-.05-.51-.19-.14-.07-.31-.16-.48-.26-.15-.08-.31-.18-.47-.28-.16-.09-.34-.15-.49-.24-.16-.1-.32-.19-.47-.28-.17-.11-.3-.25-.43-.34-.27-.19-.44-.31-.43-.35h-.02Z"/>
            <path class="st1" d="M35.63,1.06c.04-.07.11-.1.19-.09.04,0,.08.02.12.03s.06.06.09.08.07.04.1.06c.03.02.07.04.1.07.03.03.06.07.08.1.04.07.06.13.03.18s-.08.04-.15.02c-.04,0-.08-.02-.12-.04-.03-.02-.07-.04-.1-.06-.03-.02-.09,0-.12-.03-.03-.02-.07-.04-.1-.07-.03-.03-.04-.09-.07-.12-.05-.06-.08-.1-.06-.13h.01Z"/>
          </g>
        </g>
        <g>
          <path class="st1" d="M58.65,8.9c.04-.13.09-.26.23-.32.07-.51.2-1.02-.04-1.52.02-.42.05-.85.08-1.27.06-.38.17-.77-.04-1.15.06-.5,0-.99-.12-1.48.24-.33.36-.68.1-1.06-.03-.05-.1-.1-.14-.1-.06,0-.14.06-.16.11-.11.34-.09.69,0,1.03-.14.65.15,1.28.07,1.93.02-.04.04-.07.07-.11-.01.04-.03.08-.07.11-.12.52-.2,1.04,0,1.56v.4c-.09.7-.19,1.39-.28,2.09.17.01.25-.08.29-.22h.01Z"/>
          <g>
            <path class="st1" d="M62.13,44.93h0s0,0,.01,0c0,0-.01,0-.02.02h0Z"/>
            <path class="st1" d="M52.55,73.17s0-.01.01-.02h-.02v.02h0Z"/>
            <path class="st1" d="M62.89,54.8s-.03.06-.05.09c.04,0,.07,0,.07-.02s-.01-.05-.02-.07h0Z"/>
            <path class="st1" d="M62.14,44.93s.03.02.04.03c.01,0,.02-.02.03-.03h-.07Z"/>
            <path class="st1" d="M66.74,43.67l.08-.04s-.06.02-.09.02v.02h0Z"/>
            <path class="st1" d="M59.74,49.66h0s.07.01.1.01h-.1Z"/>
            <path class="st1" d="M56,48.43h0Z"/>
            <path class="st1" d="M58.95,31.31s.03-.04.04-.05c-.03,0-.06-.02-.08-.04.01,0,.03.02.04.03v.06h0Z"/>
            <path class="st1" d="M53.66,40.62s.02.03.03.04h0s-.02-.03-.03-.04h0Z"/>
            <path class="st1" d="M65.13,76.73h0v-.02.02Z"/>
            <path class="st1" d="M70.96,79.2c-.12-.14-.24-.28-.36-.41-.59.17-1.19.08-1.78.02-.59.09-1.15,0-1.71-.19h0c-.36-.03-.71.16-1.07.06h0c-.66-.03-1.31.26-1.97.09-.25-.01-.5,0-.74-.03-1.83-.25-3.68-.17-5.52-.17-.6,0-1.2-.05-1.8-.08h0c-.29.16-.61.11-.91.08-.65-.06-1.3-.12-1.96-.19-.21,0-.43-.01-.64-.02-.28.16-.58.17-.88.1l-.1.03-.1-.03h0c-.06.02-.11.03-.16.05-.11.04-.23.07-.34.08-1.16.09-1.16.08-1.18-1.13-.1-.13-.23-.25-.3-.39-.05-.09.04-.22.14-.2.26.05.52.14.71.36.06-.02.11,0,.14.06.08.02.16.03.24.05.23,0,.45,0,.6.21h.02c.07-.03.13-.02.19.04.23-.05.45-.02.66.08.21.02.41.03.62.05.31-.07.6-.01.88.1.13.01.27.02.4.04,2.11-.04,4.23.01,6.34.1.07-.03.13-.08.19-.08,1.42.01,2.83.16,4.23.39.14.02.26.11.39.17h0c.22-.15.46-.17.72-.13.42.05.85.1,1.27.15.8-.09,1.59-.17,2.39-.26.25-.23.62-.11.89-.3h0c.08-.16.24-.22.4-.26h0c.06-.21.05-.44.28-.56h0c.04-.21.09-.42.13-.62-.06-.04-.08-.09-.04-.15-.12-.06-.17-.16-.15-.29h0c-.1-.05-.16-.12-.16-.23-.27-.1-.53-.22-.8-.3-.15-.05-.27-.11-.27-.27,0-.23-.22-.47.06-.73.36.24.78.25,1.21.21h.06c-1.44-2.72-1.91-5.99-1.13-8.97.01-.04.02-.07.03-.11v-.26c-.49-1.34-.76-2.77-.83-4.23,0-.19-.01-.38-.02-.58h0c-.13-.21-.24-.43-.26-.7,0-.22-.02-.45-.16-.64.15-.28.27-.58.3-.9.04,0,.08,0,.11.02,0-1.05,0-2.1-.1-3.14-.05-.48-.04-.95,0-1.43,0-.12,0-.23.01-.35h-.02c-.45.01-.55-.25-.52-.62.06-1-.06-1.99-.07-2.99-.03-2.35-.26-4.71-.27-7.06,0-2.04-.14-4.07-.2-6.11-.01-.57.01-1.15-.2-1.7h-.19c-.04.15,0,.34-.22.45-.07-.33-.24-.62-.16-.96-.04-.36-.08-.72-.11-1.08h0c-.03-.07-.02-.14.04-.2-.01-.06-.01-.12,0-.19.04-.4.05-.4.47-.43h0c0-.07-.01-.14-.02-.21-.29-.39-.22-.75.11-1.07h0s.07-.1.05-.16c-.03-.17,0-.37-.17-.49h0s-.07.11-.07.17h0c-.21.25-.23.25-.38-.04-.11-.56-.17-1.12.21-1.62.04-.06.08-.12.13-.17.16-.12.33-.1.5-.04.16.06.18.19.15.34-.02.1-.04.21-.06.31.08,0,.15,0,.22.02h0c.08-.06.16-.13.24-.19.02-.1.02-.24.08-.3.84-.81.82-.81.8-1.97-.02-.82-.17-1.63-.09-2.45.04-.36-.11-.46-.49-.56-.66-.17-1.33-.19-2.01-.16-.39.02-.79,0-1.18,0-.26,0-.37-.14-.39-.4-.02-.43-.09-.85-.09-1.28,0-.49-.2-.83-.65-1-.22-.09-.38-.22-.34-.47.12-.71,0-1.42,0-2.13s0-.68.75-.67c.39,0,.76,0,1.09.26.13.1.33.1.51.11.22.02.4-.25.3-.44-.33-.63-.66-1.27-1.26-1.71-.37-.27-.76-.53-1.13-.81-.72-.52-1.49-1-2.14-1.59-1-.9-1.93-1.87-2.98-2.7.06-.11.09-.18.14-.22.44-.37.46-.37.17-.81-.3-.47-.66-.91-.78-1.48-.52-.16-.17.54-.52.54-.4.13-.47.49-.36.78.17.45.04.71-.29,1.01-2.2,1.99-4.39,3.99-6.58,5.99-.05.05-.12.09-.15.15-.03.05-.05.14-.03.19.02.05.1.11.15.11.6.04,1.21.06,1.81.1.33.02.38.09.4.48.04.68.09,1.35.15,2.03.03.39.19.81.08,1.15-.14.4-.71.2-1.04.42-.03.02-.06.04-.14.11.18.59-.04,1.22,0,1.86s-.06.59-.55.7c-.17.04-.35.04-.53.06-.81.09-1.62.17-2.45.26-.01.14-.01.25-.03.34-.12.51.24,1.08-.19,1.55-.02.02.02.13.06.16.3.25.22.59.2.9-.02.4.08.72.32,1.08.47.71.87,1.47,1.19,2.26.11.27.21.47.42.68.44.45.63.98.6,1.64-.12,2.32-.18,4.64-.26,6.96-.02.71,0,1.43-.03,2.14-.08,1.93-.2,3.86-.26,5.78-.05,1.67-.17,3.34-.29,5,.04.43.05.85.01,1.25-.2,2.1-.52,4.16-.86,6.23-.15,1.63-.27,3.27-.38,4.9-.06.85-.18,1.68-.37,2.47.18.58.31,1.2.4,1.87.3,2.2.04,4.18-.82,6.22-.1.24-.21.48-.33.71.32,0,.44.1.46.4.03.39.02.78.27,1.13.05.07.06.23.01.3-.18.25-.12.46.06.67.19.23.42.38.74.37.21-.01.43-.02.64-.04,1.42-.12,2.84-.32,4.27-.09.81.13,1.64.11,2.46.11,1.75,0,3.5-.06,5.25.14.93.1,1.85.14,2.78.06.97-.09,1.93-.06,2.89.07.21.03.43.04.64.06.71.05,1.43.1,2.14.15.22.01.37-.18.32-.43-.03-.13-.12-.25-.18-.38v.02h-.02ZM69.33,76.54l.06-.03.05.04c.16-.02.32-.04.48-.06.1-.14.22-.27.3-.41.11-.19.24-.24.41-.1.14.12.23.28.13.46-.13.21-.29.39-.58.37h-.04c-.1.22-.28.19-.46.15h-.01c-.36.24-.75.16-1.14.09-.11-.01-.21-.02-.32-.03h0c-.19-.01-.38-.03-.56-.04h-.03c-.38.23-.79.21-1.2.08-.2.09-.39.08-.59-.01-.29.2-.61.11-.93.1l-.09.05-.1-.03c-.8.12-1.6,0-2.4-.06-.91-.06-1.82-.14-2.73-.21-.61.21-1.21.04-1.81-.03-.1,0-.2.02-.3.02-.47.22-.94.11-1.41.03-.22-.02-.45-.04-.67-.07h0c-1-.02-2.01.02-2.99-.21-.42.08-.84.05-1.24-.12-.04-.02-.09-.11-.08-.16,0-.04.09-.1.13-.09.42.04.84.09,1.26.14.27.01.53.02.79.03.14-.03.28-.09.41-.08,1.1.08,2.21.18,3.31.28.28.01.56.03.84.04h0c.13-.09.27-.14.43-.1h0c.3-.07.6-.07.9,0h0c.32-.05.64-.02.95.08h0c.22-.12.45-.1.69-.04.24-.09.49-.07.73-.03h.07c.47-.19.96-.12,1.45-.09.49.03.97.1,1.46.15h0c.19-.15.4-.13.61-.08.59-.07,1.17,0,1.75.05.03-.09.09-.11.17-.06.17-.03.33-.06.5-.09.03-.09.08-.12.17-.07.56-.19,1.08.03,1.62.13h0ZM67.46,44.64v.06h-.04s.04-.06.04-.06ZM67.02,49.72v.21h0c.07.2.19.39.07.61,0,.46.02.92.02,1.38,0,.19-.09.34-.29.4h0c-.73.19-1.45.02-2.17-.05-.19,0-.39,0-.58-.01h0c-.2.22-.46.17-.7.13-.79,0-1.58,0-2.36-.01h0c-.08.01-.15.03-.23.04h0c-.22.12-.44.14-.68.07h0c-.05.02-.1.03-.16.04-.25.18-.55.15-.83.12-.67-.06-1.35-.14-2.02-.22-.73,0-1.47-.01-2.2-.02h0c-.7,0-1.4.01-2.1.02-.97.1-.99.09-1.05-.79-.04-.6-.06-1.2.18-1.77h0c-.24-.5-.05-1.02-.06-1.53-.01-.52.11-1.04.18-1.55-.06-.06-.06-.12,0-.18-.02-.04-.03-.08-.04-.12-.15-.48-.09-.96-.01-1.44v-.22h0c-.14-.7,0-1.4,0-2.1,0-.42.09-.83.02-1.26-.06-.34.1-.62.48-.7h0c.13-.21.36-.15.55-.19h0c0-.06-.01-.11-.06-.16h0c-.07,0-.14-.02-.2-.06h0c-.17-.13-.33-.28-.51-.37-.15-.08-.21-.17-.21-.32,0-.32-.02-.64-.02-.96.04-2.18.09-4.35.14-6.53h0v-.29c-.03-.07-.02-.13.02-.19.01-.07.02-.14.03-.21h0c.08-.28.18-.13.27,0,.09,0,.18.02.26.03h0c.08-.12.17-.19.32-.16.78-.24,1.59-.27,2.4-.3.98-.04,1.97-.13,2.96-.03.05.04.11.06.17.08-.06-.03-.12-.05-.17-.08.51.03,1.05-.06,1.51.28.08.2.26.27.44.36h0c.81.03,1.63.06,2.4.35.07.02.14.07.2.06.72-.05,1.37.26,2.04.44h0c.17-.05.34-.09.51-.14h0s.09,0,.13,0c.31.15.25.39.17.65h0c.01.57.03,1.14.04,1.71.03.06.05.13.05.2.19.29.16.6.06.92,0,.33,0,.67-.01,1,.2.51.05,1.03.07,1.55h0c.11.16.22.31.32.47l.04.03v-.65c-.26-.43-.1-.86,0-1.29.01-.04.1-.09.16-.09.05,0,.13.05.15.1.07.17.03.33-.02.5h0c.02.56.05,1.11.07,1.67.01.14.03.28.02.42-.02.32-.06.34-.47.37h0c-.23-.02-.45-.04-.68-.06h0c-.09,0-.17-.02-.26-.03-1.41-.14-2.81.04-4.21.15-.6.04-1.19.06-1.78,0h0c-.49.2-1.02.31-1.53.25-.95-.11-1.89.1-2.83.02-.13,0-.27.07-.4.1h0c-.03.07-.05.14-.08.21.29.16.67.05.93.3.38.04.76.08,1.14.12h0c.16-.05.33-.14.48-.13.58.03,1.17.1,1.75.16h0c.34-.02.69-.04,1.03-.07h0c.67-.13,1.32.03,1.98.1.37-.12.74-.2,1.13-.07.26-.04.52-.11.78,0,.64-.21,1.29-.13,1.93-.02h0c.24-.14.48-.17.67.08h.01c.41.16.43.19.4.66h0s.03.1.04.15c.16.59.01,1.19,0,1.79.13.42.18.86.1,1.3.14.64.08,1.28,0,1.92.13.37.17.75.08,1.14h0c.07.14.07.28,0,.42.17.43.12.87.02,1.31h-.01v-.03ZM52.7,30.41c-.03-.17.08-.27.23-.28.28-.02.57,0,.92-.02,0,0,.07,0,.13.02.09.04.18.11.16.24-.01.06-.03.16-.08.18-.39.21-.8.26-1.23.13-.07-.02-.12-.17-.14-.26h.01ZM55.04,30.5c-.05,0-.13-.09-.13-.13,0-.05.06-.14.11-.15.24-.04.49-.06.73-.09.66-.08.98,0,.87.22-.19.4-.56.15-.85.2-.07,0-.14,0-.08,0-.31,0-.49,0-.66-.03h0v-.02ZM56.56,29.51c-.45.06-.91.1-1.37.14-.16,0-.28-.09-.31-.23-.05-.2-.07-.42-.07-.62,0-.14.09-.25.25-.29.45-.11.9-.16,1.18-.14.61.02.67.09.6.52-.02.14-.03.28-.09.41-.03.09-.12.21-.19.22h0ZM58.6,29.96s.05.11.07.17c.05.18.05.38-.18.4-.35.03-.7,0-1.03-.13h0c-.2-.17-.19-.2.04-.37.35-.27.72-.19,1.09-.08h.01ZM57.55,29.12c.01-.18.05-.35.07-.53.02-.21.14-.31.35-.32h.32c.24,0,.54-.13.66.16.11.27,0,.56-.13.82-.04.07-.17.12-.26.13-.18.02-.36,0-.51,0h-.24c-.16,0-.27-.09-.26-.26h0ZM60.71,30.11c.15.04.21.16.19.32-.01.16-.08.29-.23.3-.21.02-.43,0-.59,0-.23-.04-.41-.05-.58-.1-.09-.03-.17-.11-.14-.24.02-.14.02-.31.19-.34.39-.07.78-.02,1.16.07h0ZM59.61,28.9c0-.11.01-.21.02-.32.02-.17.13-.24.29-.24.46,0,.91.04,1.45.07-.16,1.26-.36,1.08-1.27,1.07-.47,0-.52-.09-.49-.58h0ZM63.23,28.6c.13.02.28.03.35.18.05.11-.14.5-.28.53-.24.06-.48.1-.72.11-.23,0-.55.11-.64-.18-.05-.16.11-.39.2-.58.1-.2.3-.13.47-.13.1,0,.21.02.31.03h0c.1,0,.21.02.31.03h0ZM62.58,30.02c.21,0,.45-.03.46.27.02.4-.19.66-.51.65-.38-.02-.77,0-1.16-.16.14-.8.68-.77,1.21-.75h0ZM65.23,29.4c-.17.08-.4.05-.61.04-.17,0-.36,0-.36-.25,0-.23.16-.43.35-.45.1,0,.21,0,.3,0,.11.02.22.02.32.05.09.03.23.12.23.15-.05.16-.1.38-.22.44h-.01ZM65.6,31.3c.08.02.09.1.03.15-.04.04-.11.05-.17.08-.01-.06-.05-.13-.03-.17.02-.04.11-.07.16-.06h0ZM64.26,30.05c.14,0,.28.03.42.06.14.02.29.03.29.23s-.07.35-.24.43c-.19.09-.45.1-.84.07-.2-.02-.28-.15-.22-.37.1-.39.2-.46.59-.42h0ZM64.9,31.58c-.31.35-.68.14-1.03.11,0,0-.02-.12,0-.13.06-.03.13-.03.19-.04.1-.18.27-.19.45-.16.17,0,.35,0,.39.22h0ZM66.54,29.51c-.14,0-.35-.25-.29-.37.09-.21.21-.38.46-.37.06,0,.15.04.18.09.12.24-.1.65-.35.65h0ZM66.51,36.36c-.12-.37-.06-.65.11-1.15.06.54.07.82-.11,1.15ZM66.31,30.39c.03.11-.03.2-.13.24-.09.04-.2.04-.43.08,0,0-.08-.09-.07-.19,0-.09.05-.2.12-.25s.19-.05.29-.05c.11,0,.19.06.22.17h0ZM52.32,17c.03-.44.39-.47.66-.6h0c.02-.08.04-.15.06-.23.1-.14.13-.35.36-.37,1.48-1.46,3.01-2.86,4.57-4.22.05-.04.13-.05.19-.08.14-.24.35-.43.59-.21.78.72,1.66,1.34,2.27,2.23h0c.66.58,1.32,1.16,1.97,1.74h0c.45.23.86.5,1.19.88h0c-.1.23-.31.24-.51.22-.23-.02-.49.05-.66-.17-.04-.04-.03-.13-.04-.19.02-.05.01-.1-.02-.14-.06-.08-.12-.16-.18-.24h-.01c-.17.02-.35,0-.47.17l.03.02h0c.13,0,.19.08.18.2v.02c.05.03.12.07.12.1,0,.11-.09.11-.18.09-.64-.03-1.29.15-1.9-.18h0c-.57-.03-1.14-.14-1.7.06h0c-.02.07-.04.13-.06.2h0c.27.14.56.05.84.07.25.02.5.03.66.26h0c.42.06.84.12,1.25.19h0c.22.02.43.04.65.07h0c.07-.02.15-.04.22-.06h0c.51-.28,1.01-.02,1.62-.01-.46.55-1,.1-1.42.29h0c-.15-.02-.3-.05-.45-.07-.2,0-.4-.02-.6-.04h-.04c-.27.27-.59.18-.9.13-1.19-.17-2.39-.27-3.59-.31h0c-.43.29-.88.14-1.28,0-.16-.06-.24-.38-.5-.43h0c-.26-.02-.52-.05-.77-.07v.08l-.07.03c.07.08.15.16.24.25-.76.3-1.53.33-2.34.29h0l.02.03ZM62.6,19.55c.03-.47.15-.5.66-.2h0c.28.35.08.72.09,1.08-.03.36-.14.47-.38.39-.3-.1-.32-.32-.25-.59h0c-.17-.21-.14-.45-.12-.69h0ZM58.68,19.79c.36,0,.68.15.98.33.16.09.24.27.2.45-.05.22-.25.2-.42.2-.1,0-.2-.03-.31-.05h0c-.51.21-1.04.05-1.56.04-.06,0-.12-.15-.18-.23-.08,0-.16,0-.25,0-.02-.02-.05-.05-.07-.07v.03l.07.04c-.07.07-.12.16-.2.22-.05.04-.12.05-.17.07-.03-.08-.11-.18-.08-.24.04-.12.14-.21.22-.31h0c.09-.09.17-.18.26-.27h0c0-.16.09-.27.25-.32h.2c-.01-.17.08-.27.22-.33.01,0,.02-.02.03-.02.4-.33.85-.18,1.29-.12.29.02.51.15.78.46-.59-.06-1.03-.1-1.47-.14h0c-.12,0-.25.02-.37.03h0c.13.23.39.15.58.24h0ZM58.68,18.48c-.48-.02-.88.1-1.25.41-.38.32-.64.74-.93,1.13,0,.3-.12.55-.31.76-.07.08-.26.09-.39.08-.16-.02-.2-.16-.2-.31.02-.93.03-1.87.04-2.8-.16-.33-.14-.46.07-.44,1.17.09,2.34.17,3.51.28.78.08,1.55.21,2.39.32.16.33.14.72.16,1.1h0c.03.21.08.42.1.63,0,.05-.05.14-.1.16-.05.02-.13,0-.2-.02-.03,0-.06-.04-.09-.06-.36-.29-.72-.58-1.08-.87-.58-.13-1.13-.37-1.74-.39h0l.02.02ZM55.02,20.49c-.03.44-.17.57-.41.6-.14.02-.31,0-.34-.17-.08-.48-.14-.97-.19-1.46-.02-.28.19-.44.41-.56.12-.07.3-.08.33.11.08.55.14,1.11.19,1.48h0ZM53.49,21.93c.09-.04.21-.04.31-.05.74-.07,1.48-.19,2.22-.2,1.31-.02,2.62-.22,3.94-.09h0c.38-.17.77-.06,1.15-.03.73.06,1.47.08,2.16.35.07-.03.13-.02.19,0,.21-.16.44-.17.69-.09.15.05.21.16.26.29.07.18-.03.39-.2.37-.34-.05-.68-.11-1.02-.17-.14,0-.28-.02-.42-.02h0c-.26.03-.52.05-.78.08-.21,0-.42.04-.64.04-1.6-.03-3.2-.06-4.79-.11-.79-.02-1.56.03-2.34.15-.21.03-.42.06-.63.06-.15,0-.27-.06-.28-.24-.01-.16.04-.29.18-.35h0ZM49.57,27.64c0-.07-.01-.14,0-.21.06-.56.01-.71.64-.72.38,0,.77-.06,1.15-.09h0c-.13-.18-.32-.22-.53-.24-.26-.03-.53-.07-.79-.1-.23-.04-.52,0-.54-.36-.01-.24-.07-.48-.1-.75.56-.25,1.15-.09,1.7-.24.34-.09.7-.09,1.06-.12.19-.02.34.07.43.25h.38c.1-.45.45-.37.76-.34h.06c.13-.14.3-.15.48-.14.38.02.76.04,1.13.06.59-.27,1.17-.03,1.75.02.15,0,.29-.02.44-.03l-.03.06h.07s-.02-.04-.03-.06c.26-.29.58-.08.87-.1.13,0,.27,0,.4,0h0c.24-.21.53-.11.8-.1.61.02,1.2.21,1.82.1-.16-.17-.38-.18-.59-.21-.25-.03-.49-.07-.74-.1-.43-.22-.88-.26-1.35-.2-1.06.14-2.13.17-3.2.06-.49-.05-1,0-1.5,0-.21,0-.43,0-.64-.03s-.31-.14-.29-.36c.02-.16.1-.26.26-.28.5-.04.99-.11,1.49-.1,1.35.02,2.7.08,4.05.12,1.28.04,2.56.07,3.84.1.43,0,.85,0,1.28.03.16,0,.37-.03.43.21.04.16-.11.29-.46.32-.36.03-.71.03-1.07.03s-.71-.06-1.06.06h0c.12.21.33.25.54.27.46.05.91.11,1.37.17h0c.06.02.12.04.19.06h0c.22,0,.5-.2.6.18h0c.01.07,0,.14-.03.21,0,.16,0,.31-.01.46h0c.28-.14.25-.4.26-.65,0-.19.06-.35.29-.36,1.02.04,2.05.07,3.07.12.41.02.5.14.5.63,0,.42-.14.6-.55.6-.99,0-1.97-.02-2.96-.03-.28.16-.58.1-.88.07h-.54c-.29.24-.62.1-.92.07-.53-.05-1.06-.05-1.59-.04-1.28.03-2.55-.11-3.82-.21-.17.08-.33.1-.49,0-.56.21-1.15.14-1.72.21-.27.03-.55.03-.81.15h0c-.01.07-.03.13-.03.2h0c.28.04.55.07.83.1.39,0,.77.03,1.16.02,1.26-.03,2.52.06,3.77.23h0c.3-.03.6,0,.89.09.5-.06,1.01.12,1.51-.08h0c.22.02.43.04.65.07.66,0,1.3.06,1.95.17,1.06-.26,2.13-.19,3.2-.13.37.02.42.08.45.44.05.54-.07.72-.61.76-.39.03-.78-.02-1.17-.04s-.78-.11-1.16.07h0c-.1.17-.25.22-.42.2-.23-.03-.46-.07-.69-.11h0c-.63-.02-1.26,0-1.88-.16h0c-.35-.03-.7-.05-1.05-.08h0c-.1,0-.21,0-.31-.02-.06,0-.1-.08-.15-.13.06-.03.13-.07.19-.07.1,0,.21.03.31.04.35.03.7.07,1.05.1.41-.07.86.14,1.24-.17.02-.29-.29-.39-.36-.63-.18,0-.35-.02-.53-.03h0c-.17.04-.34.14-.51.13-.57-.03-1.14-.1-1.7-.15-.41.13-.83.2-1.25.08h0c-1.24,0-2.48,0-3.71.14h0c-.16.1-.31.2-.47.3h0c.07.03.13.06.2.1.21,0,.42,0,.63,0h0c.13-.04.27-.13.4-.12.53.03,1.05.09,1.62.15-.29.32-.59.07-.87.11-.31.05-.64.05-.95.07h0c-.28-.02-.57-.03-.85-.05-.28.03-.56.07-.85.1h0c-.08,0-.15,0-.23.02h0l-.09.04-.1-.02c-.13.14-.29.16-.47.12-.08,0-.15.02-.23.02h0c-.07.05-.14.11-.21.16-.16.12-.33.23-.49.35.17.04.34.09.52.13.46.11.58.27.53.73-.02.15-.08.28-.24.31-.17.04-.35.05-.53.07-.58.07-.95-.17-1.1-.72-.1-.38-.07-.42.41-.51.07,0,.14-.02.21-.03h0c-.16-.17-.37-.19-.58-.21-.25-.02-.49-.06-.73-.08h0c-.53-.02-1.05-.02-1.58-.06-.31-.02-.43-.17-.45-.47h0l-.04-.02ZM50.92,30.07c-.35-.42-.63-.9-.78-1.45.29-.17.52-.05.76-.03.6.05.69.14.79.64.08.4-.02.54-.62.81-.03,0-.07,0-.14.02h-.01ZM51.19,30.54c0-.12.05-.21.18-.2.12,0,.19.1.18.22-.01.09-.08.26-.11.26-.16,0-.23-.13-.24-.28h-.01ZM50.79,69.78c.07-.7.08-1.42.09-2.12.01-1.64.05-3.28.21-4.92.09-.89.08-1.78.14-2.67.1-1.35.22-2.7.34-4.05,0-.64,0-1.28.03-1.92,0-.26.16-.38.42-.37.43.01.85.02,1.28.03.84-.18,1.7-.2,2.55-.13,1.54.12,3.07.02,4.6-.07,1.1-.06,2.21-.12,3.31-.06.71.04,1.42-.1,2.13,0,.18.02.36.01.53.04.48.09.81.45.85.94.02.21-.01.42-.02.64.18.66.17,1.33.21,2,.1,1.92.16,3.84.28,5.76.18,2.74.4,5.47.6,8.2.09,1.24.16,2.49.23,3.74.02.48-.01.51-.43.55-1.45.15-2.91.22-4.37.15h-.22c-2,.02-4,0-5.99.07-1.18.05-2.35,0-3.53-.1-.39-.04-.79-.01-1.18-.02-.43,0-.86,0-1.29-.02-.54-.03-.57-.09-.62-.65-.03-.39-.06-.78-.11-1.17-.16-1.28-.16-2.55-.04-3.84h0ZM50.63,76.23c.07.07.08.11-.01.15-.17.08-.32.06-.43-.1-.01-.02.04-.11.08-.12.13-.05.25-.04.36.07h0ZM50.31,63.24c.07.28.06.58-.04.91-.17-.32-.06-.61.04-.91Z"/>
            <path class="st1" d="M56.18,16.59s-.04-.03-.06-.06h0s.03.05.06.06h0Z"/>
            <path class="st1" d="M53.09,25.19h0Z"/>
            <path class="st1" d="M53.29,26.58h-.03s.01,0,.02-.01h.01Z"/>
            <path class="st1" d="M54.98,24.94h.01-.01Z"/>
            <path class="st1" d="M61.48,24.6h.05s-.03-.06-.04-.09v.08h-.01Z"/>
            <path class="st1" d="M60.16,24.21c.12-.02.25-.04.37-.06-.12,0-.25,0-.37.06Z"/>
            <path class="st1" d="M59.74,49.66h0l.03-.03-.03.03h0Z"/>
            <path class="st1" d="M59.05,76.77h0s0,0,0,0Z"/>
            <path class="st1" d="M67.21,33.19s-.01-.07-.02-.07c0,.03.01.05.02.08h0Z"/>
            <path class="st1" d="M51.31,64.16c-.06.19-.11.38-.11.58,0,.17,0,.25.05.31.02-.3.04-.59.06-.89Z"/>
            <path class="st1" d="M70.89,75.77c.05.07.11.14.16.22-.06-.07-.11-.14-.16-.22h0Z"/>
            <path class="st1" d="M60.81,76.64v-.02.02h0Z"/>
            <path class="st1" d="M56.99,76.75v.03h.01v-.03h-.01Z"/>
            <path class="st1" d="M57.6,68.83c1.29-.43,2.59-.49,3.89-.06h.08c.11-.31.4-.32.67-.38,1.49-.33,2.03-1.01,1.8-2.54-.26-1.73-.27-3.47-.34-5.21-.01-.29-.02-.57.09-.84.04-.08.1-.14.17-.19h-.01c-.78-.67-1.29-1.49-1.49-2.5l.04-.04h0s-.05.04-.08.06c-.43.08-.75-.19-1.07-.37-1.55-.9-2.83-.36-4.03.7-.04.03-.08.07-.12.1.15.09.33-.07.5-.09h0c.37-.12.63-.47,1.07-.52.12.34.22.68.15,1.04-.4.04-.66.28-.86.61.01.18-.04.33-.22.41-.14.54-.25,1.07-.23,1.63h0c0,.24,0,.48-.03.72-.02.18-.1.32-.3.37l-.08-.02h-.08c-.25.01-.51.02-.61-.29-.05.03-.11.05-.17.05.09.13.12.29.13.45h.37c.1,0,.21-.02.3.01.36.13.38.28.08.65-.15.07-.3.14-.45.22h0c-.24.09-.33.12-.36.02-.02.21-.06.42-.2.59,0,.03,0,.06.01.08h0c.1-.02.21-.06.31-.09h0c.13-.01.27-.02.4-.03.04-.14.1-.28.27-.26.18.03.16.2.17.34,0,.19-.06.34-.25.42h0c-.08,0-.15.01-.22.02h0c-.08.1-.15.09-.21-.02-.07-.02-.14-.04-.21-.06h0c-.08.03-.15.06-.23.09v.03c0,.09,0,.19-.01.28-.02.19,0,.37.04.55.04-.04.09-.08.13-.11h0c.03-.05.03-.1.02-.16h0c.03-.14.12-.2.26-.19h0c.13,0,.26,0,.38-.01.16-.15.18-.06.17.09-.03.33-.06.67-.09,1.01h0c.01.07.02.13.04.2.18.19.11.44.14.66.11.03.18.11.2.22.61.25,1.27.11,1.9.21.55-.04,1.11-.14,1.66-.03h0c.36-.01.74.01.97-.37-.2-.69-.04-1.4-.04-2.1,0-.39.01-.77-.09-1.15.01-.1.02-.21.04-.3.03-.13.08-.27.26-.17.19.11.4.07.61.07h0c.22-.06.25-.01.17.29,0,.18-.01.37-.02.55h0c.16.75.21,1.51.19,2.27.02.37.06.75.06,1.12,0,.24-.14.38-.41.33-.57,0-1.13.01-1.7.02h0c-1.21.17-2.43.24-3.65.19h0c-.13.04-.27.1-.4.11-.29.01-.35-.17-.3-.42-.1-.11-.1-.25-.08-.38.02-.17.05-.34-.05-.5-.16.1-.2.26-.23.43-.02.14-.08.22-.16.27-.03.06-.06.11-.1.17-.26,1.09.21,1.67,1.44,1.74h0ZM59.11,56.85c.01-.14.13-.27.28-.28.17-.01.36,0,.52.04.35.08.46.25.45.61,0,.14-.03.28-.04.42-.02.22-.15.3-.36.29-.07,0-.14-.01-.13-.01-.4-.03-.63-.21-.68-.55-.02-.18-.07-.35-.05-.53h.01ZM58.08,65.84l-.02-.07h.06l-.04.07h0ZM57.98,62.4c.38-.84.87-1.61,1.6-2.19.19-.23.38-.47.58-.71.21.45.23.47.11.61-.13.16-.29.28-.44.42-.42.87-1.07,1.57-1.64,2.33-.2-.11-.29-.27-.21-.45h0ZM60.68,65.41c-.01.26-.16.4-.4.42-.25.02-.5.02-.75,0-.21,0-.32-.2-.2-.37.14-.2.29-.41.46-.59.24-.25.5-.48.94-.89-.02.63-.04,1.03-.05,1.42h0ZM60.75,57.17c.28-.03.41.1.57.18.27.14.32.35.25.62-.08.31-.17.61-.36.87-.75-.45-.48-1.08-.45-1.67h-.01ZM62.14,62.17c-.08,0-.18-.12-.21-.21-.12-.29-.04-.64-.23-.92-.05-.44-.08-.88-.28-1.29-.14-.08-.19-.14.01-.2h0c.19-.34.38-.67.59-1.05.35.18.51.48.62.8.23.67.37,1.36.36,2.08,0,.31-.52.8-.85.79h-.01ZM61,67.95s.09.11.08.14c-.06.13-.18.21-.33.15-.04-.02-.06-.1-.08-.16.07-.15.19-.19.33-.14h0ZM56.48,68.15c.07-.15.2-.16.35-.16.46.01.91.01,1.37.02h0c.21-.11.42-.11.65-.05.32.03.63.05.95.09.1.01.11.02.02.16-.01.02-.07.02-.1.03-.13.13-.28.17-.46.16-.37-.03-.74-.07-1.11-.11-.35-.05-.7-.01-1.04.05h-.45c-.14,0-.22-.04-.17-.2h-.01Z"/>
            <path class="st1" d="M70.55,78.71l.05.08s-.02-.06-.03-.09c0,0-.01,0-.02,0Z"/>
            <path class="st1" d="M68.25,29.62c-.1-.02-.18-.06-.25-.12-.94-.24-.46.53-.6.85.02.13.09.18.22.16.08,0,.15.03.21.08.09.17.04.32-.05.47.17-.08.22-.25.27-.41.08-.22.17-.44.26-.67.24-.15.27-.38.25-.63h0c-.1.1-.16.25-.32.26h.01Z"/>
          </g>
        </g>
        <rect class="st1" x="51.55" y="40.41" width="15.92" height="12.24"/>
      </g>
    </g>
    <path class="st1" d="M152.18,24.77c.35-.23.95,0,1.53.61.28.29.56.64.85,1.04.06.09.11.18.16.28.02.05.05.1.07.15,0,.02,0,.04,0,.06.02.08.06.17.14.21.16.07.34.05.51,0h.03l.02-.02.04-.02.16-.09c.1-.06.21-.11.31-.17.2-.11.41-.21.62-.29.49-.17.97-.24,1.38-.3.84-.12,1.42,0,1.51.27.09.29-.37.52-1.03.92-.32.2-.7.41-1.11.63-.18.1-.36.19-.55.28-.1.05-.19.09-.29.14l-.14.08-.09.05-.12.06c-.3.14-.62.28-.98.34s-.75.03-1.09-.14c-.35-.18-.66-.43-.89-.72-.06-.07-.11-.15-.16-.23-.04-.06-.06-.1-.09-.15-.05-.09-.1-.19-.15-.28-.21-.44-.2-.98-.34-1.34-.29-.75-.47-1.25-.29-1.36h-.02Z"/>
    <path class="st1" d="M161.54,20.1c.09-.19.39-.26.82-.15.43.11.98.39,1.54.88.54.47,1.09,1.12,1.55,1.9.05.08.1.17.14.26s.08.18.12.28c.07.19.15.38.2.58.06.2.11.4.17.6,0,.04,0,.06,0,.1,0,.03,0,.06.02.09l.02.06s.02.07.04.1c0,0,.04,0,.05,0,0,0,.02-.02.03-.03.02,0,.03-.03.05-.05l.03-.03s.05-.05.08-.09l.12-.11c.3-.29.64-.54.98-.75.8-.46,1.62-.68,2.31-.8.35-.07.68-.08.97-.1.29,0,.54.02.74.05.41.08.64.2.65.35,0,.15-.19.28-.54.39-.18.06-.39.14-.63.22-.24.1-.51.18-.79.31-.55.24-1.16.56-1.75.98-.25.19-.51.38-.75.6l-.09.08-.11.11c-.06.06-.11.11-.17.18l-.09.09s-.06.07-.08.11c-.11.14-.22.29-.33.42-.11.11-.22.22-.34.34l-.26.16s-.08.04-.11.06l-.1.05s-.07.03-.11.04c-.04,0-.1.02-.16.02-.12,0-.25,0-.35-.04-.05-.02-.1-.03-.14-.05-.02,0-.03,0-.05-.03l-.05-.06-.2-.24c-.13-.16-.27-.33-.4-.5-.03-.13-.07-.26-.1-.39-.08-.34-.16-.69-.24-1.03-.06-.16-.12-.32-.18-.47-.05-.16-.13-.3-.19-.45s-.12-.3-.2-.44c-.15-.33-.27-.68-.39-1-.07-.16-.12-.33-.2-.47-.08-.15-.15-.29-.24-.41-.36-.51-.71-.9-.96-1.17-.25-.28-.38-.45-.33-.54h0Z"/>
  </g>
</svg>