<?xml version="1.0" encoding="UTF-8"?>
<svg id="Layer_1" xmlns="http://www.w3.org/2000/svg" version="1.1" viewBox="0 0 1605.3 646.74">
  <!-- Generator: Adobe Illustrator 29.7.1, SVG Export Plug-In . SVG Version: 2.1.1 Build 8)  -->
  <defs>
    <style>
      .st0 {
        fill: #231f20;
      }

      .st1 {
        fill: #ffe879;
      }

      .st2 {
        fill: #1c1c1c;
      }
    </style>
  </defs>
  <circle class="st1" cx="1110.6" cy="240.04" r="178.03"/>
  <g>
    <g>
      <g>
        <path class="st0" d="M180.03,593.42l-114.6-267.81h56.51l58.1,135.7,58.1-135.7h56.9l-115,267.81Z"/>
        <path class="st0" d="M847.74,359.04l-37.8,35.81c-12.34-13.13-39-19.9-56.9-15.52-8.75,1.99-14.72,6.37-17.91,11.14-3.18,5.17-4.78,11.14-4.38,17.11.4,8.75,5.17,16.71,13.93,19.9,7.96,3.58,21.49,6.37,36.61,9.95,15.12,3.58,33.43,7.96,48.15,23.08,15.12,15.12,21.09,39.79,17.11,66.45l-.4,1.59-.4,1.59c-11.54,43.37-52.53,64.86-89.54,62.87-37.01-2.39-73.62-22.28-93.51-57.3l45.36-25.87c9.95,17.51,32.23,29.85,51.33,31.04,14.33.8,24.27-1.19,30.64-11.14,5.97-9.15,7.56-21.09,1.99-29.84-3.58-5.57-10.35-9.55-22.68-11.94-12.73-2.79-29.05-5.17-45.76-12.73-17.11-7.56-35.02-23.08-41.78-46.16l-.4-1.19v-.8c-5.17-25.07-1.19-48.55,10.74-66.06,11.54-17.51,29.84-27.85,48.55-32.23,9.15-2.39,18.7-3.58,28.65-3.18,28.65,0,57.7,11.14,78.39,33.43Z"/>
        <path class="st0" d="M979.45,325.61h89.14c30.24,0,56.51,13.13,72.82,32.63,16.71,19.5,23.88,44.17,23.88,68.05s-7.16,48.95-23.88,68.44c-16.31,19.5-42.58,32.63-72.82,32.63h-37.01v66.06h-52.13v-267.81ZM1031.58,475.23h37.01c16.71,0,25.87-5.57,33.03-14.33,7.16-8.36,11.54-21.09,11.54-34.62s-4.38-25.87-11.54-34.62c-7.16-8.36-16.32-13.93-33.03-13.93h-37.01v97.49Z"/>
        <path class="st0" d="M1413.18,325.61c70.04,0,124.95,61.68,124.95,134.1s-54.92,133.71-124.95,133.71-124.55-61.28-124.55-133.71,54.92-134.1,124.55-134.1ZM1340.76,459.72c0,46.56,33.43,81.58,72.42,81.58s72.82-35.02,72.82-81.58-33.43-81.97-72.82-81.97-72.42,35.02-72.42,81.97Z"/>
      </g>
      <g>
        <g>
          <path class="st2" d="M615.22,295.79c-.25.46-1.04.56-2,.26-.46-.14-.98-.36-1.52-.61-.47-.22-.84-.67-1.32-.95-.47-.27-.95-.52-1.4-.81-.47-.31-.97-.53-1.38-.85-.48-.37-.88-.78-1.23-1.12-.72-.7-1.1-1.3-.91-1.62s.79-.1,1.71.25c.45.17.95.4,1.48.67.46.23.91.55,1.39.83.46.27,1.09.28,1.54.57.47.3.96.55,1.38.85.49.35.78.93,1.15,1.24.75.64,1.23,1.06,1.11,1.29Z"/>
          <g>
            <path class="st2" d="M579.48,243.03c-.1.51-1.25.72-2.9.47-.79-.12-1.71-.32-2.68-.59-.84-.23-1.65-.72-2.53-1.03-.85-.3-1.72-.59-2.56-.94-.86-.36-1.74-.64-2.52-1.02-.9-.44-1.7-.93-2.38-1.34-1.41-.84-2.26-1.55-2.11-1.89.14-.35,1.16-.04,2.71.42.76.22,1.62.52,2.55.85.8.29,1.63.66,2.49.99.83.31,1.78.34,2.61.66.87.31,1.7.61,2.51.9.91.36,1.67.97,2.39,1.27,1.48.62,2.47,1,2.41,1.26Z"/>
            <path class="st2" d="M659.64,272.25c-.1.51-2.62.17-6.35-.89-1.8-.51-3.88-1.16-6.11-1.91-1.93-.64-3.89-1.57-5.97-2.32-1.99-.72-4.03-1.44-6.01-2.2-2.05-.8-4.1-1.49-5.98-2.26-2.18-.9-4.16-1.81-5.86-2.57-3.5-1.58-5.71-2.77-5.58-3.12.13-.35,2.5.43,6.14,1.63,1.77.58,3.82,1.3,6.03,2.09,1.91.68,3.91,1.48,5.97,2.24,1.98.73,4.11,1.18,6.08,1.93,2.06.76,4.08,1.5,5.98,2.19,2.19.84,4.11,1.9,5.84,2.59,3.54,1.42,5.86,2.33,5.81,2.6Z"/>
            <path class="st2" d="M556.07,210.8c-.07.52-.72.89-1.65.97-.45.04-.96.02-1.51-.02-.47-.04-.94-.32-1.45-.4-.49-.08-.99-.13-1.47-.25-.5-.12-1.01-.14-1.47-.28-.53-.17-1-.4-1.41-.59-.84-.39-1.36-.81-1.29-1.18.07-.37.66-.38,1.57-.39.44,0,.95.03,1.49.08.47.05.96.18,1.46.27.49.08,1.03-.14,1.51-.03.5.11,1,.16,1.46.28.53.15.97.58,1.38.74.85.32,1.4.54,1.37.8Z"/>
            <path class="st2" d="M615.11,221.24c-.04.52-1.73.74-4.28.54-1.22-.1-2.65-.26-4.18-.48-1.32-.19-2.69-.64-4.11-.9-1.37-.25-2.77-.48-4.13-.78-1.42-.31-2.82-.53-4.12-.87-1.5-.39-2.87-.85-4.04-1.23-2.41-.79-3.92-1.5-3.83-1.86.09-.37,1.7-.08,4.18.31,1.21.19,2.6.44,4.11.72,1.3.27,2.68.56,4.09.85,1.36.27,2.8.23,4.16.5,1.41.28,2.81.5,4.1.77,1.5.32,2.84.91,4.03,1.2,2.44.58,4.03.97,4.01,1.23Z"/>
            <path class="st2" d="M652.48,227.69c-.07.52-1.6.68-3.86.47-1.09-.1-2.35-.27-3.71-.48-1.17-.18-2.38-.6-3.65-.83-1.22-.22-2.47-.4-3.69-.64-1.27-.25-2.52-.4-3.69-.65-1.35-.3-2.58-.66-3.64-.95-2.18-.6-3.57-1.15-3.52-1.52.06-.37,1.52-.25,3.77-.05,1.09.1,2.36.25,3.73.44,1.18.16,2.42.42,3.7.64,1.22.21,2.53.12,3.75.37,1.27.25,2.53.44,3.69.71,1.35.31,2.53.9,3.59,1.2,2.17.61,3.57,1.04,3.54,1.3Z"/>
            <path class="st2" d="M587.75,188.57c.06.52-2.17,1.01-5.63,1.25-1.67.12-3.62.2-5.72.26-1.82.05-3.75-.15-5.72-.14-1.9,0-3.83.05-5.72.02-1.97-.03-3.91.05-5.72-.01-2.11-.07-4.05-.22-5.72-.33-3.43-.23-5.67-.55-5.67-.92,0-.38,2.23-.49,5.66-.67,1.67-.08,3.61-.14,5.71-.19,1.81-.04,3.75,0,5.71,0,1.89,0,3.82-.32,5.72-.31,1.97.02,3.9-.03,5.72.01,2.1.05,4.05.4,5.71.48,3.42.16,5.65.28,5.68.54Z"/>
            <path class="st2" d="M625.05,188.43c.02.52-.57,1-1.47,1.24-.44.11-.95.19-1.5.24-.48.05-.98-.16-1.5-.15-.5,0-1,.04-1.5,0-.52-.03-1.02.04-1.5-.03-.55-.07-1.06-.23-1.5-.34-.9-.24-1.49-.56-1.49-.94,0-.38.58-.49,1.48-.65.44-.08.95-.14,1.5-.17.48-.03.98.02,1.5.01.5,0,1-.31,1.5-.29.52.02,1.02-.02,1.5.03.55.05,1.06.41,1.5.49.9.17,1.48.29,1.49.55Z"/>
            <path class="st2" d="M675.09,188.25c.07.52-2.06,1.01-5.37,1.25-1.59.12-3.46.2-5.47.26-1.74.05-3.59-.15-5.48-.14-1.81,0-3.66.05-5.48.02-1.89-.03-3.74.05-5.47-.01-2.01-.07-3.88-.22-5.47-.33-3.28-.23-5.41-.55-5.41-.92,0-.38,2.13-.49,5.41-.67,1.59-.08,3.45-.14,5.46-.19,1.73-.04,3.58,0,5.46,0,1.81,0,3.65-.32,5.46-.3,1.88.02,3.73-.03,5.46.02,2.01.05,3.87.4,5.46.48,3.27.16,5.4.28,5.44.54Z"/>
            <path class="st2" d="M575.52,163.01c.14.5-1.41,1.28-3.91,1.96-1.2.33-2.62.66-4.15.99-1.32.28-2.78.34-4.22.61-1.39.26-2.8.54-4.19.77-1.45.23-2.85.55-4.2.73-1.55.2-3.01.31-4.25.42-2.56.22-4.25.19-4.32-.17-.07-.37,1.55-.77,4.03-1.39,1.21-.3,2.62-.61,4.15-.93,1.32-.27,2.75-.48,4.19-.74,1.39-.25,2.74-.81,4.13-1.04,1.45-.24,2.85-.53,4.19-.73,1.55-.22,3.04-.13,4.27-.27,2.53-.29,4.19-.46,4.26-.21Z"/>
            <path class="st2" d="M607.93,157.11c.1.51.04,1.01-.15,1.28-.09.13-.21.23-.34.3-.11.06-.28-.11-.41-.08-.13.03-.25.08-.38.07-.14,0-.25.08-.38.04-.15-.05-.31-.18-.44-.27-.27-.19-.48-.49-.54-.86-.07-.37.06-.5.26-.71.1-.1.22-.17.35-.23.11-.05.25-.03.38-.05.13-.02.2-.35.33-.35.13,0,.26-.06.38-.03.15.03.34.36.47.42.26.13.43.23.48.48Z"/>
            <path class="st2" d="M643.87,150.58c.11.51-.42,1.1-1.35,1.5-.44.19-.97.37-1.55.52-.5.13-1.07.03-1.62.14-.53.1-1.06.23-1.59.29-.55.07-1.08.23-1.6.26-.6.03-1.17-.02-1.65-.05-1-.06-1.68-.27-1.74-.64-.07-.37.53-.59,1.46-.92.45-.16.98-.31,1.56-.45.5-.12,1.05-.17,1.59-.27.53-.1,1.01-.5,1.54-.57.55-.08,1.08-.21,1.6-.25.59-.05,1.2.2,1.68.2.98,0,1.62,0,1.68.26Z"/>
            <path class="st2" d="M554.29,143.82c.2.48-.37,1.2-1.42,1.82-.51.3-1.12.6-1.79.9-.58.25-1.28.29-1.93.53-.62.23-1.24.48-1.87.68-.66.2-1.27.49-1.88.64-.71.18-1.4.26-1.99.35-1.2.18-2.04.13-2.17-.22-.13-.35.57-.72,1.63-1.28.52-.27,1.14-.55,1.81-.83.58-.24,1.23-.42,1.87-.65.62-.22,1.15-.74,1.77-.94.65-.21,1.27-.47,1.88-.64.71-.19,1.46-.09,2.04-.2,1.18-.24,1.95-.38,2.05-.14Z"/>
            <path class="st2" d="M584.32,132.71c.21.48-.6,1.29-2.04,2.07-.69.38-1.52.76-2.43,1.16-.78.34-1.7.46-2.56.79-.83.31-1.67.66-2.51.94-.88.29-1.7.67-2.52.9-.95.27-1.86.45-2.63.61-1.59.34-2.68.39-2.81.04-.13-.35.81-.82,2.26-1.53.7-.35,1.54-.71,2.45-1.09.79-.33,1.65-.59,2.51-.92.83-.31,1.57-.91,2.41-1.2.87-.3,1.71-.65,2.52-.9.94-.29,1.92-.27,2.68-.47,1.56-.4,2.58-.64,2.69-.4Z"/>
            <path class="st2" d="M627.5,116.44c.23.47-1.21,1.53-3.62,2.68-1.16.55-2.54,1.15-4.04,1.77-1.29.53-2.76.87-4.17,1.41-1.36.52-2.74,1.07-4.12,1.56-1.43.5-2.8,1.09-4.13,1.52-1.54.5-3,.88-4.24,1.23-2.56.71-4.28,1-4.41.65-.13-.35,1.43-1.06,3.85-2.14,1.17-.53,2.55-1.1,4.05-1.71,1.3-.52,2.7-1,4.12-1.53,1.36-.51,2.64-1.33,4.01-1.82,1.43-.51,2.8-1.07,4.13-1.52,1.53-.52,3.06-.71,4.29-1.08,2.52-.77,4.17-1.25,4.29-1.02Z"/>
            <path class="st2" d="M660.88,104.03c.22.47-.83,1.4-2.67,2.34-.88.45-1.94.93-3.09,1.4-.99.41-2.14.62-3.23,1.02-1.05.39-2.11.8-3.17,1.16-1.1.37-2.15.82-3.18,1.13-1.19.35-2.32.61-3.28.85-1.98.48-3.32.66-3.46.31-.14-.35,1.05-.93,2.9-1.8.9-.42,1.96-.87,3.11-1.33,1-.4,2.09-.74,3.18-1.14,1.05-.38,2.02-1.06,3.07-1.42,1.1-.37,2.16-.8,3.18-1.13,1.18-.38,2.38-.44,3.33-.71,1.94-.55,3.21-.92,3.33-.68Z"/>
            <path class="st2" d="M549.47,119.92c.28.44-.43,1.39-1.79,2.42-.65.49-1.44,1.02-2.3,1.57-.74.47-1.66.76-2.48,1.25-.79.46-1.58.96-2.39,1.41-.84.46-1.6,1-2.38,1.41-.91.47-1.78.84-2.53,1.18-1.53.7-2.6,1.04-2.81.73-.21-.31.63-1.02,1.95-2.06.64-.51,1.42-1.06,2.28-1.63.74-.49,1.57-.94,2.4-1.43.79-.47,1.45-1.22,2.26-1.66.84-.46,1.64-.96,2.44-1.36.92-.46,1.92-.61,2.67-.94,1.53-.67,2.54-1.09,2.68-.87Z"/>
            <path class="st2" d="M569.14,108.52c.22.48-.03,1.1-.58,1.63-.26.26-.59.51-.94.77-.31.22-.76.26-1.12.48-.34.21-.68.47-1.05.66-.38.2-.71.49-1.09.65-.44.18-.9.28-1.28.36-.79.18-1.38.1-1.55-.23-.17-.34.21-.65.76-1.15.27-.25.6-.5.96-.77.32-.23.7-.41,1.06-.65.35-.22.55-.71.93-.92.39-.21.75-.47,1.14-.63.45-.19,1.01-.08,1.38-.18.77-.19,1.28-.26,1.39-.03Z"/>
            <path class="st2" d="M595.28,93.12c.27.45.31.98.1,1.37-.1.19-.24.36-.41.51-.15.14-.43.07-.61.18-.17.11-.34.24-.53.31-.2.08-.35.24-.55.28-.23.05-.49.02-.71.01-.44-.02-.81-.18-1-.51-.19-.32-.04-.54.2-.87.11-.16.27-.31.45-.45.15-.12.36-.19.54-.29.18-.1.2-.47.39-.56.2-.09.36-.22.55-.28.22-.07.58.14.78.12.4-.04.68-.05.81.17Z"/>
            <path class="st2" d="M624.9,75.72c.3.43-.72,1.59-2.57,2.94-.89.65-1.96,1.37-3.13,2.12-1.01.64-2.21,1.12-3.33,1.78-1.08.64-2.16,1.31-3.25,1.92-1.14.63-2.2,1.33-3.27,1.88-1.23.64-2.42,1.16-3.43,1.61-2.07.94-3.51,1.4-3.69,1.08-.19-.32,1.02-1.16,2.89-2.45.91-.62,1.98-1.32,3.16-2.05,1.01-.63,2.14-1.23,3.25-1.89,1.07-.63,2.01-1.54,3.1-2.16,1.13-.64,2.21-1.31,3.26-1.88,1.22-.65,2.51-1,3.5-1.48,2.03-.99,3.36-1.63,3.51-1.42Z"/>
            <path class="st2" d="M636.22,69.02c.27.44.24,1.02-.08,1.48-.15.22-.36.43-.6.62-.21.17-.55.14-.79.29-.24.14-.46.31-.71.42-.26.12-.47.32-.73.39-.3.09-.62.1-.89.12-.55.05-1-.07-1.19-.39-.19-.32.03-.58.38-.98.17-.19.38-.38.63-.57.21-.16.48-.26.72-.41.24-.14.32-.55.57-.67.26-.12.48-.3.73-.39.29-.11.72.06.97,0,.51-.1.86-.16.99.06Z"/>
          </g>
        </g>
        <g>
          <path class="st2" d="M332.51,296.12c-.28-.44.03-1.18.76-1.87.35-.33.79-.68,1.28-1.02.42-.3,1-.4,1.48-.68.46-.27.92-.58,1.4-.82.5-.25.94-.59,1.42-.79.55-.23,1.11-.38,1.58-.52.96-.28,1.67-.32,1.86,0,.19.32-.3.74-1.06,1.37-.37.31-.82.63-1.31.96-.43.29-.93.52-1.41.8-.46.27-.78.81-1.26,1.06-.49.26-.95.57-1.42.79-.54.25-1.2.22-1.65.39-.92.34-1.53.55-1.67.33Z"/>
          <g>
            <path class="st2" d="M368.16,243.4c-.16-.5.74-1.22,2.22-1.9.71-.33,1.56-.66,2.47-1.02.79-.3,1.71-.41,2.58-.72.83-.3,1.67-.64,2.51-.93.87-.3,1.7-.69,2.51-.94.95-.29,1.85-.5,2.62-.68,1.59-.39,2.68-.49,2.83-.15.14.35-.78.85-2.22,1.62-.7.37-1.53.77-2.45,1.17-.79.35-1.66.63-2.53.97-.84.32-1.59.93-2.45,1.21-.89.29-1.75.63-2.59.85-.97.26-1.96.2-2.75.34-1.61.3-2.67.43-2.75.19Z"/>
            <path class="st2" d="M288.02,272.61c-.23-.47,1.97-1.73,5.54-3.21,1.72-.72,3.74-1.51,5.94-2.35,1.89-.72,3.99-1.26,6.06-2.02,1.99-.73,4-1.5,5.99-2.2,2.07-.73,4.07-1.55,6-2.2,2.23-.75,4.31-1.37,6.1-1.92,3.67-1.13,6.12-1.71,6.25-1.36.13.35-2.16,1.34-5.68,2.84-1.71.73-3.73,1.55-5.91,2.4-1.89.74-3.93,1.44-5.99,2.21-1.98.73-3.9,1.77-5.9,2.47-2.08.73-4.1,1.5-6.02,2.13-2.23.74-4.4,1.12-6.19,1.66-3.66,1.09-6.06,1.77-6.18,1.54Z"/>
            <path class="st2" d="M391.54,211.18c-.1-.51.4-1.08,1.25-1.46.41-.18.9-.34,1.43-.48.46-.12.99,0,1.49-.1.49-.09.98-.2,1.47-.25.51-.05,1-.2,1.47-.22.55-.02,1.08.05,1.53.09.92.09,1.55.31,1.62.68.07.37-.49.58-1.34.89-.41.15-.91.29-1.44.41-.46.11-.97.14-1.47.23-.49.08-.93.47-1.42.53-.51.06-1,.18-1.48.22-.55.04-1.11-.23-1.55-.24-.91-.02-1.5-.05-1.55-.3Z"/>
            <path class="st2" d="M332.49,221.62c-.13-.51,1.41-1.24,3.87-1.89,1.18-.31,2.58-.62,4.09-.94,1.3-.27,2.73-.32,4.14-.59,1.36-.25,2.74-.55,4.11-.78,1.42-.25,2.79-.59,4.1-.8,1.52-.24,2.94-.39,4.16-.55,2.5-.32,4.16-.39,4.25-.03.09.36-1.48.86-3.9,1.58-1.18.35-2.56.71-4.07,1.06-1.3.31-2.7.54-4.12.82-1.36.27-2.7.84-4.07,1.07-1.43.24-2.82.53-4.14.71-1.53.21-3,.1-4.22.22-2.5.24-4.14.38-4.2.13Z"/>
            <path class="st2" d="M295.14,228.06c-.15-.5,1.19-1.28,3.38-1.95,1.05-.32,2.3-.64,3.65-.94,1.17-.26,2.45-.29,3.73-.52,1.23-.22,2.47-.47,3.7-.65,1.28-.19,2.52-.46,3.71-.59,1.38-.15,2.66-.2,3.76-.26,2.26-.12,3.76-.03,3.82.34.06.37-1.37.71-3.56,1.23-1.06.25-2.31.51-3.66.77-1.17.22-2.42.38-3.69.6-1.22.21-2.41.73-3.63.93-1.27.2-2.51.47-3.68.64-1.36.2-2.67.09-3.76.22-2.22.27-3.68.45-3.75.2Z"/>
            <path class="st2" d="M359.79,188.95c-.06-.52,2.18-.99,5.64-1.21,1.67-.1,3.62-.17,5.72-.21,1.82-.04,3.75.17,5.72.18,1.9,0,3.83-.02,5.72.02,1.97.04,3.91-.02,5.72.05,2.1.08,4.05.25,5.72.37,3.43.25,5.66.59,5.66.96,0,.38-2.23.48-5.66.63-1.67.07-3.61.12-5.71.15-1.81.02-3.75-.03-5.71-.04-1.89,0-3.82.29-5.72.26-1.97-.03-3.9,0-5.72-.06-2.1-.06-4.04-.43-5.71-.52-3.42-.18-5.65-.32-5.68-.58Z"/>
            <path class="st2" d="M322.49,188.81c-.01-.52.57-1,1.48-1.22.44-.11.95-.18,1.5-.23.48-.04.98.16,1.5.16.5,0,1-.03,1.5,0,.52.03,1.02-.03,1.5.04.55.08,1.06.23,1.5.35.9.24,1.48.57,1.48.95,0,.38-.59.48-1.49.64-.44.08-.95.13-1.5.16-.48.03-.98-.02-1.5-.02-.5,0-1,.31-1.5.28-.52-.03-1.02,0-1.5-.04-.55-.06-1.06-.42-1.5-.5-.9-.18-1.48-.3-1.49-.57Z"/>
            <path class="st2" d="M272.44,188.63c-.05-.52,2.1-.99,5.41-1.21,1.59-.1,3.46-.17,5.47-.22,1.74-.04,3.58.17,5.46.18,1.81,0,3.66-.02,5.47.02,1.88.04,3.73-.02,5.47.05,2.01.08,3.87.24,5.47.37,3.28.25,5.41.59,5.42.96,0,.38-2.13.48-5.41.63-1.59.07-3.45.12-5.46.15-1.74.02-3.58-.03-5.47-.04-1.81,0-3.66.3-5.47.27-1.88-.03-3.73,0-5.47-.06-2.01-.06-3.86-.43-5.46-.52-3.26-.18-5.4-.32-5.42-.58Z"/>
            <path class="st2" d="M371.96,163.38c.05-.52,1.77-.7,4.35-.46,1.24.11,2.68.3,4.23.53,1.34.2,2.72.66,4.16.92,1.39.25,2.81.48,4.19.76,1.44.29,2.87.49,4.18.79,1.53.36,2.93.77,4.13,1.1,2.47.69,4.05,1.31,3.98,1.68-.07.37-1.72.18-4.26-.12-1.23-.14-2.67-.35-4.21-.6-1.33-.21-2.74-.52-4.18-.78-1.39-.25-2.85-.21-4.24-.48-1.44-.29-2.86-.51-4.18-.8-1.53-.33-2.89-.94-4.09-1.25-2.47-.62-4.08-1.05-4.06-1.31Z"/>
            <path class="st2" d="M339.55,157.49c.09-.51.32-.96.59-1.14.13-.09.27-.14.42-.16.13-.02.22.2.35.22.13.02.26.01.38.07.12.06.26.01.37.1.13.1.23.28.32.41.18.28.27.63.21,1-.07.37-.23.45-.49.57-.12.06-.26.09-.41.1-.13,0-.24-.06-.38-.09-.13-.02-.31.26-.43.21-.13-.05-.26-.03-.37-.1-.13-.08-.19-.46-.29-.56-.2-.21-.32-.36-.28-.62Z"/>
            <path class="st2" d="M303.6,150.95c.08-.51.78-.88,1.79-.93.48-.02,1.04,0,1.63.06.51.05,1.01.35,1.56.44.53.09,1.07.16,1.59.29.54.13,1.09.17,1.59.32.57.18,1.09.43,1.53.63.91.41,1.47.85,1.41,1.21-.07.37-.71.37-1.69.35-.48,0-1.03-.05-1.62-.12-.51-.06-1.04-.21-1.59-.31-.53-.09-1.12.11-1.64,0-.54-.12-1.09-.18-1.58-.32-.57-.16-1.05-.61-1.5-.78-.92-.34-1.52-.58-1.48-.84Z"/>
            <path class="st2" d="M393.12,144.17c.16-.5,1.05-.69,2.26-.49.58.09,1.25.25,1.95.45.61.17,1.17.59,1.82.82.62.22,1.26.42,1.87.67.63.26,1.29.43,1.86.7.66.32,1.25.69,1.75,1,1.04.63,1.66,1.2,1.54,1.55-.13.35-.89.2-2.07-.05-.57-.12-1.23-.3-1.93-.51-.6-.18-1.22-.46-1.86-.69-.62-.22-1.36-.16-1.97-.4-.64-.25-1.28-.45-1.86-.71-.67-.3-1.18-.86-1.7-1.14-1.06-.56-1.75-.95-1.67-1.2Z"/>
            <path class="st2" d="M363.09,133.06c.15-.5,1.3-.58,2.9-.23.77.17,1.65.42,2.59.71.81.26,1.59.76,2.46,1.08.83.31,1.69.59,2.51.93.85.35,1.72.61,2.5.97.9.42,1.7.88,2.39,1.26,1.42.79,2.29,1.46,2.15,1.81-.13.35-1.15.09-2.71-.32-.76-.2-1.63-.47-2.56-.78-.81-.27-1.64-.63-2.5-.95-.83-.31-1.78-.33-2.61-.67-.85-.34-1.72-.62-2.49-.97-.9-.4-1.63-1.05-2.33-1.4-1.44-.72-2.37-1.2-2.3-1.45Z"/>
            <path class="st2" d="M319.9,116.79c.14-.5,1.92-.35,4.49.38,1.24.35,2.67.81,4.2,1.33,1.32.45,2.64,1.17,4.06,1.7,1.37.51,2.77,1.01,4.12,1.55,1.41.57,2.82,1.03,4.11,1.58,1.49.64,2.84,1.32,4,1.88,2.39,1.16,3.88,2.07,3.74,2.42-.13.35-1.78-.15-4.3-.93-1.23-.38-2.65-.86-4.17-1.39-1.32-.46-2.69-1.03-4.11-1.57-1.36-.51-2.86-.75-4.22-1.28-1.41-.56-2.81-1.05-4.1-1.58-1.49-.62-2.77-1.48-3.94-2.01-2.4-1.09-3.96-1.81-3.89-2.06Z"/>
            <path class="st2" d="M286.53,104.39c.16-.5,1.56-.47,3.54.04.96.24,2.06.58,3.24.96,1.02.33,2.02.91,3.11,1.31,1.05.38,2.13.74,3.18,1.15,1.08.43,2.18.76,3.16,1.19,1.14.5,2.17,1.05,3.05,1.5,1.82.94,2.93,1.72,2.79,2.07-.14.35-1.4-.02-3.35-.58-.95-.27-2.04-.62-3.21-1.01-1.01-.34-2.07-.78-3.16-1.17-1.05-.38-2.23-.48-3.27-.89-1.08-.42-2.17-.78-3.16-1.2-1.15-.48-2.1-1.22-2.99-1.65-1.83-.88-3.01-1.48-2.93-1.73Z"/>
            <path class="st2" d="M397.88,120.25c.23-.47,1.41-.36,2.99.27.76.3,1.63.7,2.54,1.17.79.4,1.51,1.05,2.35,1.53.8.46,1.63.91,2.41,1.41.81.52,1.66.96,2.38,1.48.84.61,1.56,1.25,2.18,1.79,1.28,1.11,1.99,2,1.79,2.31-.21.31-1.16-.21-2.65-.97-.72-.37-1.54-.83-2.43-1.33-.76-.44-1.53-.96-2.35-1.45-.79-.47-1.75-.68-2.53-1.16-.81-.5-1.64-.93-2.39-1.41-.86-.55-1.5-1.33-2.17-1.8-1.36-.97-2.25-1.61-2.13-1.84Z"/>
            <path class="st2" d="M378.25,108.86c.19-.48.84-.73,1.66-.58.39.07.82.22,1.27.41.38.17.66.57,1.04.8.37.22.74.42,1.08.67.35.26.74.43,1.03.69.34.31.62.65.87.93.51.57.8,1.08.63,1.42-.17.33-.67.21-1.42-.04-.36-.12-.77-.3-1.19-.52-.36-.19-.69-.46-1.06-.69-.35-.22-.87-.19-1.2-.42-.35-.24-.71-.42-1.02-.65-.35-.27-.55-.77-.83-1.01-.57-.48-.97-.78-.87-1.02Z"/>
            <path class="st2" d="M352.07,93.45c.26-.45.71-.75,1.14-.76.21,0,.43.04.65.11.19.06.27.34.45.45.18.1.37.18.53.31.17.14.38.18.51.34.16.18.26.42.36.61.2.39.24.8.05,1.12-.19.32-.45.3-.85.25-.19-.02-.4-.08-.61-.17-.18-.07-.34-.22-.52-.33-.18-.1-.51.06-.67-.06-.17-.13-.37-.2-.51-.34-.17-.16-.17-.58-.28-.74-.23-.33-.37-.57-.24-.79Z"/>
            <path class="st2" d="M322.45,76.05c.23-.47,1.75-.14,3.83.82,1,.46,2.15,1.05,3.37,1.71,1.05.57,2.05,1.39,3.17,2.05,1.08.63,2.19,1.25,3.25,1.91,1.1.69,2.23,1.28,3.23,1.94,1.16.77,2.18,1.55,3.07,2.21,1.83,1.35,2.93,2.38,2.74,2.71-.19.32-1.51-.33-3.54-1.33-.99-.49-2.12-1.09-3.33-1.77-1.05-.58-2.12-1.27-3.24-1.93-1.08-.63-2.33-1.01-3.39-1.67-1.11-.68-2.22-1.29-3.23-1.94-1.17-.75-2.09-1.71-2.99-2.34-1.85-1.29-3.06-2.15-2.94-2.38Z"/>
            <path class="st2" d="M311.13,69.34c.26-.45.78-.7,1.33-.64.26.03.55.11.84.22.25.1.39.41.64.56.24.14.5.25.72.42.23.17.5.26.7.45.22.22.39.5.54.72.31.46.42.91.23,1.23-.19.32-.53.25-1.04.14-.25-.05-.52-.15-.8-.28-.24-.11-.46-.29-.7-.44-.24-.14-.63-.02-.86-.18-.23-.17-.49-.28-.7-.45-.23-.2-.3-.65-.46-.85-.34-.4-.55-.67-.43-.9Z"/>
          </g>
        </g>
        <g>
          <path class="st0" d="M469.94,123.41c.28-.93.63-1.77,1.6-2.18.47-3.51,1.41-7.03-.3-10.48.17-2.93.35-5.86.52-8.79.43-2.65,1.18-5.31-.25-7.9.39-3.45.03-6.85-.86-10.19,1.63-2.31,2.45-4.71.69-7.32-.21-.32-.69-.7-1-.66-.41.05-1,.41-1.12.76-.78,2.35-.59,4.73.03,7.09-.96,4.47,1.01,8.83.47,13.29.15-.26.31-.51.46-.77-.09.29-.22.56-.46.77-.81,3.6-1.36,7.2.06,10.79.02.91.04,1.83.06,2.74-.64,4.8-1.28,9.6-1.92,14.4,1.14.09,1.73-.58,2.02-1.55Z"/>
          <g>
            <path class="st0" d="M493.92,371.87s.03,0,.04,0v-.02s-.01,0-.01,0h0s.02,0,.03,0c.03-.03.06-.07.1-.1-.05.04-.1.07-.15.11Z"/>
            <path class="st0" d="M427.87,566.66s.06-.09.1-.14c-.07.02-.12,0-.15-.04-.01.01-.03.03-.04.04.02,0,.03,0,.05.01.02.04.03.09.05.13Z"/>
            <path class="st0" d="M499.18,439.96c-.11.21-.23.42-.36.64.27-.04.51-.05.48-.14-.05-.17-.08-.33-.12-.5Z"/>
            <path class="st0" d="M493.96,371.87c.11.07.2.13.31.2.07-.06.13-.13.18-.21-.16,0-.32,0-.48,0,0,0,0,0,0,.01Z"/>
            <path class="st0" d="M525.72,363.17l.55-.29c-.2.05-.41.11-.61.16.03.04.04.08.06.12Z"/>
            <path class="st0" d="M477.45,404.54s.01.06.02.1c.21-.05.45-.03.68-.04,0-.03-.02-.03-.03-.06-.22,0-.45,0-.67,0Z"/>
            <path class="st0" d="M451.65,396.03s.02-.02.03-.02h-.04s0,.02,0,.02Z"/>
            <path class="st0" d="M472.01,277.94c.1-.12.2-.25.31-.37-.19-.08-.38-.17-.57-.25.1.08.22.13.31.23.01.14-.03.26-.04.4Z"/>
            <path class="st0" d="M435.48,342.19c.08.1.16.2.23.31,0,0,0,0,0,0-.08-.1-.15-.21-.23-.31,0,0,0,0,0,0Z"/>
            <path class="st0" d="M514.61,591.17h.06s-.03-.09-.04-.13c-.01.04,0,.09-.02.13Z"/>
            <path class="st0" d="M554.82,608.26c-.83-.95-1.66-1.91-2.48-2.86-4.08,1.15-8.18.52-12.28.11-4.04.62-7.94-.06-11.77-1.32,0,0,0,0,0,0-2.48-.22-4.87,1.08-7.37.38,0,0,0,0,0,0-4.55-.19-9.01,1.81-13.61.61-1.71-.07-3.44,0-5.13-.24-12.65-1.74-25.37-1.15-38.08-1.2-4.14-.02-8.29-.35-12.43-.55,0,0,0,0,0,0,0,0,0,0,0,0-2.02,1.08-4.19.73-6.3.55-4.5-.38-8.99-.85-13.49-1.29-1.47-.04-2.94-.08-4.41-.12-1.93,1.1-3.99,1.14-6.09.72l-.7.24-.71-.18s-.01,0-.02,0c-.38.14-.74.24-1.08.32-.78.25-1.57.5-2.36.56-8,.61-8,.58-8.12-7.79-.71-.89-1.56-1.71-2.08-2.7-.32-.62.27-1.5.99-1.35,1.82.37,3.59.99,4.89,2.47.43-.14.76-.02.98.38.56.12,1.11.23,1.66.35,1.57-.03,3.1.06,4.17,1.45l.13.04c.49-.24.92-.16,1.29.24,1.57-.32,3.08-.14,4.53.54,1.43.12,2.86.24,4.29.35,2.11-.5,4.11-.1,6.06.71.92.08,1.83.17,2.75.25,14.58-.31,29.15.07,43.71.68.45-.19.9-.55,1.34-.55,9.79.1,19.5,1.1,29.15,2.71.94.16,1.8.75,2.7,1.14,0,0,0,0,0,0,1.51-1.02,3.19-1.15,4.94-.93,2.92.37,5.85.71,8.78,1.06,5.49-.6,10.97-1.2,16.46-1.81,1.75-1.57,4.31-.74,6.14-2.06h0c.58-1.1,1.63-1.49,2.74-1.78,0,0,0,0,0,0,.4-1.42.37-3.05,1.93-3.89h0s0,0,0,0c.31-1.43.62-2.87.92-4.3-.42-.26-.52-.62-.31-1.06-.84-.42-1.15-1.12-1.06-2.03l-.05-.09c-.7-.25-1.1-.73-1.09-1.5-1.83-.7-3.64-1.49-5.51-2.07-1.06-.32-1.88-.79-1.86-1.89.03-1.58-1.55-3.23.41-5.06,2.51,1.65,5.41,1.72,8.36,1.44.14-.01.25-.04.38-.05-9.92-18.79-13.19-41.3-7.77-61.85.07-.25.12-.5.18-.75.01-.6,0-1.2.02-1.8-3.39-9.26-5.26-19.13-5.71-29.17-.06-1.32-.09-2.65-.12-3.97h0c-.9-1.46-1.64-2.98-1.78-4.8-.03-1.55-.15-3.08-1.1-4.4,1.06-1.95,1.88-3.98,2.09-6.22.3-.02.53.05.77.11.05-7.23.03-14.45-.7-21.67-.33-3.29-.29-6.58.02-9.86.01-.81.06-1.61.09-2.41-.04,0-.07-.02-.12-.02-3.09.08-3.78-1.71-3.62-4.28.43-6.89-.41-13.75-.51-20.63-.23-16.24-1.82-32.47-1.86-48.71-.04-14.06-.99-28.07-1.35-42.11-.1-3.91.08-7.93-1.35-11.72-.44-.02-.88-.03-1.32-.01,0,0,0,0,0,0-.3,1.05.03,2.37-1.53,3.12-.46-2.25-1.64-4.27-1.08-6.64-.26-2.47-.53-4.95-.79-7.42,0,0,0,0,0,0h0c-.21-.51-.13-.96.26-1.35-.07-.43-.07-.86,0-1.3.31-2.76.33-2.78,3.21-2.95,0,0,0,0,0,0-.04-.48-.08-.97-.13-1.45-2.03-2.69-1.54-5.14.74-7.4,0,0,0,0,0,0,.33-.3.45-.68.37-1.12-.22-1.19,0-2.52-1.14-3.4,0,0,0,0,0,0-.31.33-.48.73-.51,1.18,0,0,0,0,0,0,0,0,0,0,0,0h0s0,0,0,0c-1.47,1.72-1.59,1.7-2.62-.3-.75-3.87-1.18-7.71,1.44-11.15.29-.39.54-.84.91-1.14,1.07-.86,2.29-.69,3.46-.28,1.11.39,1.27,1.3,1.03,2.36-.16.71-.26,1.44-.38,2.16.52.05,1.03.09,1.55.14h0c.55-.44,1.1-.88,1.65-1.32.17-.71.11-1.66.55-2.09,5.81-5.6,5.67-5.58,5.51-13.57-.11-5.63-1.17-11.22-.59-16.89.25-2.47-.73-3.18-3.37-3.85-4.58-1.16-9.2-1.31-13.89-1.07-2.7.14-5.42.04-8.12-.01-1.76-.03-2.58-1-2.68-2.77-.17-2.95-.62-5.88-.65-8.83-.04-3.35-1.4-5.69-4.49-6.92-1.55-.61-2.62-1.54-2.32-3.25.86-4.91-.04-9.8-.04-14.69,0-4.89,0-4.72,5.18-4.64,2.72.04,5.22.03,7.54,1.81.87.66,2.3.7,3.5.78,1.54.11,2.79-1.69,2.08-3.04-2.27-4.37-4.56-8.76-8.66-11.78-2.57-1.89-5.22-3.68-7.8-5.56-4.97-3.61-10.25-6.88-14.79-10.97-6.88-6.19-13.32-12.87-20.54-18.59.44-.73.59-1.24.94-1.53,3.05-2.53,3.14-2.56,1.2-5.58-2.09-3.25-4.57-6.28-5.38-10.2-3.59-1.07-1.16,3.7-3.62,3.73-2.74.92-3.25,3.35-2.49,5.39,1.15,3.11.31,4.91-2,7-15.19,13.7-30.25,27.54-45.35,41.33-.36.33-.8.63-1.03,1.04-.21.37-.37.94-.22,1.29.15.36.68.76,1.06.78,4.16.26,8.32.43,12.48.67,2.26.13,2.61.65,2.79,3.31.31,4.67.65,9.33,1.02,13.99.21,2.67,1.34,5.62.54,7.93-.96,2.78-4.92,1.41-7.15,2.92-.2.13-.38.29-.99.77,1.26,4.08-.27,8.41,0,12.8.28,4.41-.42,4.08-3.77,4.8-1.19.26-2.44.26-3.66.38-5.59.59-11.19,1.18-16.92,1.79-.09.98-.08,1.69-.24,2.35-.85,3.51,1.64,7.43-1.31,10.7-.13.14.15.89.43,1.12,2.04,1.73,1.5,4.05,1.41,6.21-.12,2.79.56,5,2.21,7.48,3.25,4.87,5.98,10.17,8.22,15.59.77,1.86,1.48,3.25,2.89,4.67,3.04,3.07,4.34,6.78,4.11,11.34-.8,16-1.26,32.02-1.79,48.03-.16,4.92,0,9.86-.2,14.77-.56,13.3-1.41,26.59-1.81,39.89-.34,11.52-1.16,23.01-2.02,34.49.28,2.99.33,5.89.07,8.63-1.4,14.45-3.56,28.72-5.92,42.95-1.06,11.26-1.88,22.53-2.61,33.82-.38,5.88-1.24,11.56-2.54,17.01,1.21,4.03,2.14,8.29,2.77,12.92,2.04,15.15.29,28.83-5.65,42.92-.7,1.65-1.46,3.28-2.27,4.88,2.18.05,3.03.7,3.18,2.78.19,2.71.17,5.4,1.85,7.77.34.48.39,1.58.07,2.04-1.23,1.75-.8,3.18.41,4.65,1.33,1.61,2.93,2.62,5.09,2.52,1.47-.07,2.94-.16,4.41-.28,9.8-.82,19.58-2.18,29.44-.59,5.62.91,11.29.76,16.96.76,12.08,0,24.17-.38,36.21.94,6.39.7,12.79,1,19.19.42,6.67-.6,13.3-.41,19.92.5,1.46.2,2.94.3,4.42.41,4.92.35,9.83.7,14.75,1.01,1.53.1,2.54-1.21,2.18-2.99-.19-.92-.82-1.75-1.24-2.62ZM543.55,589.87s.41-.2.41-.2l.37.26c1.1-.13,2.19-.26,3.29-.38.7-.95,1.5-1.84,2.08-2.85.75-1.31,1.68-1.65,2.84-.7.98.8,1.59,1.95.87,3.15-.87,1.45-2.01,2.71-3.98,2.54l-.3.1c-.72,1.45-1.93,1.23-3.16.91h-.08c-2.49,1.68-5.17,1.1-7.84.64-.74-.07-1.48-.13-2.22-.2,0,0,0,0,0,0,0,0,0,0,0,0-1.29-.09-2.59-.19-3.89-.28h-.21c-2.65,1.6-5.42,1.44-8.25.57-1.36.61-2.71.53-4.05-.09-2.01,1.36-4.24.76-6.41.72l-.63.33-.67-.21c-5.55.83-11.06-.05-16.58-.39-6.27-.39-12.54-.95-18.81-1.43-4.19,1.42-8.33.3-12.49-.23-.69.05-1.38.11-2.07.16-3.22,1.49-6.49.73-9.75.18-1.54-.16-3.08-.31-4.62-.47,0,0,0,0,0,0,0,0,0,0,0,0-6.9-.17-13.84.15-20.64-1.45-2.92.55-5.78.33-8.53-.81-.31-.13-.59-.75-.56-1.12.02-.25.62-.68.93-.65,2.91.28,5.81.64,8.71.97,1.83.07,3.65.14,5.48.2.95-.19,1.93-.59,2.86-.52,7.61.58,15.21,1.25,22.82,1.9,1.93.09,3.86.18,5.8.26,0,0,0,0,0,0,0,0,0,0,0,0,.91-.61,1.88-.95,2.99-.67,0,0,0,0,0,0,0,0,0,0,0,0,2.08-.51,4.15-.47,6.22.05,0,0,0,0,0,0,0,0,0,0,0,0,2.23-.37,4.42-.11,6.57.54,0,0,0,0,0,0,1.54-.86,3.13-.71,4.74-.26,1.66-.62,3.35-.49,5.05-.23l.46.07s0,0,0,0h0c3.25-1.4,6.65-.92,10-.69,3.36.23,6.71.69,10.07,1.05v-.04s0,0,0,0h0c1.29-1.01,2.73-.88,4.18-.51,4.04-.49,8.05-.05,12.06.36.23-.62.62-.76,1.19-.4,1.15-.2,2.29-.4,3.44-.61.2-.61.57-.81,1.15-.46,3.85-1.32,7.47.19,11.16.9ZM530.65,369.89l.1.41-.37-.09.27-.32ZM527.64,404.9c0,.48-.01.96-.02,1.43,0,0,0,0,0,0,0,0,0,0,0,0,.5,1.37,1.3,2.7.5,4.22.06,3.17.15,6.34.16,9.51,0,1.32-.61,2.33-1.97,2.73,0,0,0,0,0,0,0,0,0,0,0,0-5.02,1.32-9.99.17-14.97-.33-1.34-.03-2.67-.05-4.01-.08,0,0,0,0,0,0,0,0,0,0,0,0-1.4,1.5-3.14,1.15-4.86.87-5.43-.03-10.87-.06-16.3-.09,0,0,0,0,0,0h0c-.52.09-1.04.18-1.56.26,0,0,0,0,0,0-1.5.8-3.06,1-4.69.45h0s0,0,0,0c-.35.15-.71.24-1.09.27-1.75,1.26-3.76,1.03-5.71.85-4.64-.44-9.28-.99-13.91-1.5-5.06-.04-10.13-.07-15.19-.11,0,0,0,0,0,0-4.84.05-9.68.1-14.51.15-6.68.69-6.83.59-7.25-5.44-.29-4.13-.4-8.25,1.24-12.19h0c-1.66-3.44-.37-7.05-.43-10.56-.07-3.56.77-7.14,1.21-10.71-.4-.4-.4-.8,0-1.21-.12-.27-.2-.53-.26-.8-1.04-3.28-.59-6.61-.09-9.94.02-.5.04-1,.06-1.5h0,0c-.97-4.83.01-9.66-.02-14.5-.02-2.89.61-5.73.13-8.68-.38-2.35.71-4.26,3.33-4.84h0c.92-1.43,2.47-1.06,3.8-1.32,0,0,0,0,0,0,.04-.43-.09-.79-.39-1.1,0,0,0,0,0,0,0,0,0,0,0,0-.51.02-.97-.11-1.41-.39,0,0,0,0,0,0-1.18-.88-2.26-1.93-3.55-2.57-1.06-.52-1.44-1.2-1.47-2.23-.06-2.22-.17-4.43-.12-6.65.3-15.01.64-30.02.97-45.02h0c-.02-.68-.04-1.35-.05-2.03-.18-.47-.12-.92.17-1.33.08-.47.15-.95.23-1.42h0s0,0,0,0c.52-1.94,1.21-.92,1.88-.1.6.07,1.21.14,1.81.21,0,0,0,0,0,0,0,0,0,0,0,0,.52-.81,1.2-1.29,2.22-1.1,5.39-1.68,11-1.83,16.55-2.05,6.79-.27,13.58-.87,20.39-.2.36.25.78.4,1.2.53-.4-.18-.8-.35-1.2-.53,3.54.18,7.23-.39,10.39,1.91.53,1.4,1.82,1.88,3.01,2.47,0,0,0,0,0,0,0,0,0,0,0,0,5.6.21,11.21.43,16.56,2.39.46.17.94.45,1.39.42,4.99-.32,9.45,1.77,14.1,3.03h0c1.17-.33,2.35-.65,3.52-.98,0,0,0,0,0,0h0c.31-.11.61-.08.89.09,2.15,1.01,1.72,2.72,1.19,4.45,0,0,0,0,0,0,0,0,0,0,0,0,.1,3.92.21,7.84.31,11.76.24.44.35.9.34,1.4,1.29,2.03,1.09,4.16.4,6.32-.03,2.31-.06,4.62-.09,6.92,1.35,3.5.34,7.11.47,10.67h0c.74,1.08,1.49,2.15,2.23,3.23l.27.18c0-1.5,0-2.99,0-4.49-1.81-2.97-.68-5.95.03-8.9.07-.28.72-.61,1.09-.59.36.01.88.36,1.03.69.5,1.14.23,2.31-.14,3.45h0c.16,3.83.32,7.66.48,11.49.07.96.24,1.93.17,2.88-.16,2.2-.38,2.32-3.24,2.53h0c-1.56-.14-3.13-.27-4.69-.41,0,0,0,0,0,0,0,0,0,0,0,0-.6-.07-1.2-.13-1.79-.2-9.72-.94-19.37.3-29.02,1.01-4.14.31-8.21.41-12.31.02,0,0,0,0,0,0-3.39,1.35-7.01,2.15-10.55,1.72-6.55-.79-13.02.7-19.53.14-.9-.08-1.85.45-2.77.69,0,0,0,0,0,0-.18.49-.36.98-.54,1.46,2.02,1.08,4.61.34,6.43,2.04,2.63.27,5.25.53,7.88.8,0,0,.02,0,.03,0,1.11-.33,2.25-.97,3.34-.91,4.03.23,8.05.7,12.08,1.09,0,0,0,0,0,0,0,0,0,0,0,0,2.37-.15,4.73-.3,7.1-.45,0,0,0,0,0,0,0,0,0,0,0,0,4.61-.9,9.11.24,13.65.72,2.55-.8,5.11-1.39,7.76-.45,1.8-.25,3.6-.78,5.39.09,4.43-1.47,8.88-.88,13.33-.17,0,0,0,0,0,0,1.68-.95,3.28-1.2,4.63.58l.09.05h0c2.8,1.04,2.94,1.27,2.75,4.52l-.06.04c.16.33.24.67.29,1,1.12,4.1.08,8.24-.02,12.37.92,2.93,1.21,5.92.68,8.96.96,4.41.58,8.82-.06,13.22.88,2.58,1.18,5.2.57,7.88,0,0,0,0,0,0,0,0,0,0,0,0,.47.96.46,1.93.06,2.9,1.19,3,.83,6.02.13,9.05ZM428.89,271.73c-.23-1.16.55-1.87,1.58-1.95,1.95-.15,3.91-.1,6.37-.15-.03,0,.51-.08.93.12.65.3,1.27.79,1.12,1.65-.08.44-.23,1.07-.55,1.25-2.68,1.47-5.55,1.8-8.46.9-.48-.15-.86-1.15-.99-1.82ZM445.05,272.37c-.35-.04-.87-.59-.88-.93-.02-.35.43-.99.76-1.05,1.67-.3,3.37-.44,5.06-.65,4.54-.58,6.73-.01,6,1.49-1.34,2.74-3.85,1.04-5.83,1.36-.47.07-.97-.07-.55-.03-2.13-.07-3.35-.03-4.55-.18ZM455.49,265.52c-3.13.43-6.28.69-9.43.95-1.11.09-1.93-.6-2.16-1.57-.34-1.4-.51-2.87-.51-4.3,0-1,.63-1.74,1.73-2,3.1-.74,6.23-1.13,8.13-.98,4.23.13,4.61.59,4.14,3.56-.15.96-.24,1.96-.59,2.85-.23.6-.81,1.43-1.32,1.5ZM469.58,268.65c.27.08.35.78.51,1.19.34,1.26.36,2.59-1.23,2.74-2.39.23-4.81.04-7.1-.87h0s0,0,0,0h0c-1.35-1.17-1.32-1.36.31-2.54,2.38-1.89,4.96-1.31,7.52-.53ZM462.35,262.83c.08-1.22.35-2.42.49-3.64.17-1.44.97-2.16,2.38-2.23.74-.04,1.47-.04,2.21-.03,1.63.04,3.75-.9,4.57,1.12.74,1.84-.02,3.88-.9,5.64-.25.5-1.17.84-1.82.9-1.21.12-2.45,0-3.51-.03-.65.01-1.14.05-1.63.03-1.13-.04-1.86-.59-1.78-1.78ZM484.11,269.65c1.06.25,1.45,1.12,1.34,2.23-.1,1.07-.52,2-1.62,2.1-1.45.12-2.94-.05-4.04-.09-1.57-.25-2.82-.33-3.98-.68-.64-.19-1.16-.77-1-1.68.16-.96.15-2.13,1.29-2.33,2.68-.47,5.37-.17,8,.45ZM476.52,261.33c.05-.73.08-1.46.16-2.19.13-1.17.91-1.67,1.98-1.64,3.14.1,6.27.27,9.98.45-1.08,8.66-2.51,7.43-8.75,7.39-3.27-.02-3.62-.6-3.37-4.01ZM501.5,259.24c.92.15,1.92.23,2.38,1.22.35.74-.95,3.42-1.92,3.65-1.63.39-3.3.71-4.97.78-1.58.06-3.8.78-4.41-1.21-.34-1.09.74-2.71,1.39-3.99.68-1.35,2.05-.91,3.21-.89.72.01,1.44.13,2.16.19,0,.01,0,.02,0,.03.72.07,1.45.1,2.16.21ZM497.02,269.03c1.43.05,3.11-.2,3.2,1.84.12,2.75-1.32,4.55-3.52,4.45-2.62-.12-5.3,0-8.02-1.12.97-5.53,4.66-5.31,8.34-5.17ZM515.29,264.8c-1.2.55-2.79.32-4.21.3-1.15-.02-2.49,0-2.5-1.7,0-1.62,1.11-3,2.42-3.07.71-.04,1.43.06,2.06.09.79.12,1.53.12,2.19.36.6.21,1.62.85,1.57,1.01-.36,1.09-.7,2.63-1.52,3.01ZM517.86,277.86c.55.13.64.66.21,1.04-.3.26-.75.35-1.14.52-.08-.4-.33-.91-.18-1.15.17-.27.77-.48,1.11-.4ZM508.58,269.25c.97.1,1.94.24,2.9.4.94.16,1.99.23,2.01,1.57.02,1.32-.47,2.42-1.67,3-1.34.65-3.12.72-5.77.49-1.37-.12-1.93-1.05-1.55-2.56.68-2.68,1.38-3.19,4.07-2.91ZM513.06,279.8c-2.15,2.38-4.71.95-7.13.74-.03,0-.12-.85,0-.92.39-.19.88-.19,1.33-.27.72-1.27,1.86-1.33,3.11-1.07,1.16.04,2.42-.09,2.68,1.52ZM524.32,265.51c-.96.03-2.38-1.71-2.03-2.56.59-1.42,1.46-2.6,3.2-2.55.42.01,1.04.27,1.21.6.83,1.67-.69,4.45-2.38,4.51ZM524.14,312.76c-.81-2.53-.43-4.49.76-7.91.39,3.71.51,5.63-.76,7.91ZM522.76,271.57c.19.79-.21,1.41-.88,1.68-.64.26-1.38.27-2.94.55-.06.01-.53-.62-.51-1.29.01-.6.37-1.39.84-1.72.51-.36,1.32-.34,2-.37.77-.03,1.31.41,1.49,1.15ZM426.24,179.23c.21-3.04,2.7-3.23,4.53-4.14h0c.14-.52.27-1.05.4-1.57.68-.99.9-2.44,2.5-2.53,10.19-10.05,20.73-19.71,31.54-29.09.34-.3.88-.37,1.33-.55.96-1.65,2.38-3,4.07-1.43,5.36,4.97,11.44,9.23,15.64,15.38h0s0,0,0,0c4.54,4.01,9.07,8.02,13.61,12.03,0,0,0,0,0,0,0,0,0,0,0,0,3.07,1.58,5.91,3.47,8.24,6.05h0c-.71,1.6-2.13,1.63-3.54,1.53-1.58-.12-3.35.36-4.55-1.14-.25-.31-.18-.87-.26-1.31.15-.35.09-.67-.16-.96-.43-.54-.84-1.1-1.21-1.68l-.1-.07c-1.16.18-2.43.09-3.22,1.24l.21.15h0c.91.03,1.31.52,1.26,1.41l.09.14c.27.24.77.49.76.72-.04.75-.62.76-1.21.62-4.39-.21-8.92,1.03-13.12-1.21h0c-3.92-.21-7.87-.96-11.73.43,0,0,0,0,0,0-.14.46-.28.92-.43,1.37h0c1.86.96,3.86.36,5.79.51,1.73.14,3.45.18,4.58,1.8,0,0,0,0,0,0h0c2.88.43,5.76.86,8.64,1.28,0,0,0,0,0,0h0c1.5.15,3,.31,4.49.46,0,0,0,0,0,0,.5-.14,1.01-.28,1.51-.42,0,0,0,0,0,0,0,0,0,0,0,0,3.53-1.92,6.99-.12,11.17-.1-3.18,3.78-6.89.69-9.78,2h0s0,0,0,0c-1.02-.16-2.05-.32-3.07-.48-1.38-.08-2.77-.17-4.15-.25h-.28s0,0,0,0h0c-1.84,1.85-4.08,1.21-6.21.91-8.21-1.14-16.45-1.85-24.73-2.11,0,0,0,0,0,0-2.94,1.97-6.06.98-8.85-.04-1.1-.4-1.65-2.61-3.42-2.95,0,0,0,0,0,0,0,0,0,0,0,0-1.78-.16-3.56-.33-5.34-.49l.05.58-.54.2c.5.54,1.01,1.07,1.64,1.74-5.23,2.06-10.54,2.25-16.13,1.97ZM497.14,196.85c.18-3.21,1.01-3.44,4.56-1.36l.06.07s0,0,0,0c1.93,2.32.58,4.92.6,7.39-.23,2.48-.98,3.25-2.62,2.7-2.08-.71-2.21-2.24-1.75-4.04,0,0,0,0,0,0-1.18-1.43-.95-3.12-.86-4.76ZM470.15,198.51c2.51-.05,4.68,1.02,6.75,2.25,1.09.65,1.64,1.83,1.35,3.09-.35,1.53-1.73,1.41-2.9,1.41-.71,0-1.41-.23-2.11-.35,0,0,0,0,0,0,0,0,0,0,0,0-3.54,1.42-7.17.34-10.76.27-.42,0-.82-1.02-1.22-1.57-.57-.03-1.13-.06-1.7-.1-.16-.16-.32-.32-.47-.48-.01.06-.02.12-.04.19l.51.3c-.45.51-.86,1.08-1.37,1.52-.32.27-.8.34-1.2.5-.22-.57-.74-1.24-.58-1.67.3-.8.99-1.45,1.51-2.17,0,0,0,0,0,0,0,0,0,0,0,0,.6-.62,1.2-1.23,1.8-1.85,0,0,0,0,0,0,.06-1.13.62-1.87,1.72-2.2h0s0,0,0,0c.46.01.92.02,1.38.03-.09-1.19.57-1.84,1.52-2.3.08-.08.16-.14.24-.13,2.79-2.27,5.88-1.27,8.93-.85,2.01.12,3.51,1.02,5.38,3.18-4.04-.38-7.09-.67-10.14-.96,0,0,0,0,0,0-.85.08-1.7.16-2.55.24h0c.88,1.6,2.68,1.02,3.97,1.65ZM470.14,189.47c-3.33-.13-6.08.67-8.65,2.84-2.64,2.24-4.4,5.1-6.4,7.82.05,2.05-.84,3.8-2.15,5.21-.51.55-1.77.65-2.66.56-1.11-.11-1.36-1.09-1.35-2.14.11-6.44.19-12.88.29-19.32-1.13-2.28-.99-3.14.51-3.03,8.08.61,16.17,1.16,24.24,1.96,5.38.53,10.71,1.44,16.49,2.23,1.13,2.31.98,4.99,1.09,7.61h0c.24,1.44.55,2.88.69,4.33.04.36-.36.96-.7,1.12-.36.16-.91-.04-1.35-.15-.22-.06-.42-.25-.61-.4-2.49-1.99-4.98-3.98-7.47-5.97-3.99-.89-7.79-2.52-11.98-2.68ZM444.87,203.35c-.21,3.01-1.19,3.94-2.83,4.12-.97.11-2.16-.07-2.34-1.16-.55-3.34-1-6.71-1.28-10.08-.16-1.93,1.32-3.06,2.84-3.87.86-.46,2.07-.58,2.28.76.58,3.82,1,7.66,1.32,10.24ZM434.32,213.27c.64-.28,1.42-.28,2.15-.35,5.11-.49,10.21-1.28,15.32-1.36,9.06-.15,18.09-1.55,27.16-.59,0,0,0,0,0,0,2.59-1.14,5.29-.44,7.9-.22,5.02.43,10.12.53,14.92,2.4.45-.18.88-.15,1.3.09,1.46-1.13,3.05-1.18,4.74-.65,1.02.32,1.46,1.1,1.82,2.01.49,1.25-.22,2.72-1.35,2.57-2.35-.32-4.68-.77-7.02-1.17-.97-.06-1.93-.11-2.9-.17,0,0,0,0,0,0,0,0,0,0,0,0-1.8.18-3.61.37-5.41.55-1.46.1-2.93.3-4.39.27-11.02-.22-22.04-.43-33.05-.78-5.42-.17-10.78.23-16.12,1.04-1.45.22-2.91.41-4.37.44-1.01.02-1.87-.44-1.96-1.67-.08-1.07.29-1.97,1.26-2.4ZM407.31,252.62c-.03-.48-.08-.97-.04-1.45.38-3.84.09-4.87,4.41-4.95,2.65-.05,5.3-.42,7.95-.65h0c-.9-1.24-2.23-1.49-3.63-1.64-1.82-.2-3.64-.47-5.46-.71-1.59-.31-3.59.08-3.74-2.5-.1-1.65-.45-3.29-.71-5.14,3.86-1.72,7.94-.64,11.71-1.67,2.34-.64,4.86-.62,7.31-.82,1.34-.11,2.37.47,2.97,1.71.88-.02,1.77-.04,2.65-.06h0s0,0,0,0c.72-3.11,3.07-2.54,5.26-2.33l.44-.04s0,0,0,0c.91-.94,2.08-1,3.28-.94,2.6.13,5.21.26,7.81.39,4.06-1.85,8.06-.2,12.09.17,1.01-.08,2.02-.15,3.03-.23l-.23.39s0,0,0,0c0,0,0,0,0,0,.15,0,.3.02.46.03-.08-.14-.15-.27-.23-.41,1.8-2.01,4-.57,6.02-.69.93.03,1.86.06,2.79.09,0,0,0,0,0,0,1.68-1.46,3.64-.73,5.51-.69,4.19.13,8.31,1.44,12.54.67-1.12-1.15-2.59-1.26-4.06-1.42-1.7-.19-3.4-.46-5.1-.7-2.96-1.49-6.1-1.79-9.34-1.35-7.34,1-14.67,1.16-22.06.38-3.4-.36-6.88.05-10.32.05-1.47,0-2.95-.07-4.42-.22-1.43-.14-2.17-.96-1.99-2.46.13-1.08.67-1.82,1.8-1.9,3.42-.27,6.86-.76,10.28-.7,9.32.15,18.64.56,27.96.83,8.83.25,17.65.47,26.48.68,2.95.07,5.89.05,8.84.18,1.12.05,2.52-.2,2.94,1.43.29,1.13-.79,2.02-3.16,2.21-2.45.2-4.91.19-7.37.24-2.44.05-4.91-.43-7.31.41,0,0,0,0,0,0,.82,1.48,2.25,1.69,3.74,1.87,3.15.37,6.3.76,9.44,1.15,0,0,0,0,0,0,.43.11.86.25,1.28.4,0,0,0,0,0,0,0,0,0,0,0,0,1.54-.1,3.44-1.37,4.17,1.25,0,0,0,0,0,0h0c.08.5.02.98-.19,1.44-.03,1.07-.05,2.14-.08,3.2v.02c1.95-.97,1.69-2.8,1.77-4.49.06-1.32.4-2.41,2.01-2.48,7.06.27,14.12.5,21.17.82,2.84.13,3.44.99,3.42,4.34-.02,2.93-.99,4.11-3.79,4.11-6.81,0-13.62-.12-20.43-.19-1.94,1.1-4.01.67-6.06.5,0,0,0,0,0,0,0,0,0,0,0,0-1.24-.02-2.48-.04-3.71-.06-1.98,1.68-4.28.66-6.33.47-3.68-.35-7.32-.35-11-.26-8.82.21-17.59-.75-26.37-1.43-1.14.56-2.27.7-3.39-.03-3.84,1.42-7.91.99-11.88,1.44-1.89.22-3.79.22-5.57,1.01,0,0,0,0,0,0-.1.46-.18.93-.23,1.4,0,0,.01,0,.02,0h0s0,.01,0,.02c1.9.23,3.81.46,5.71.69,2.66.06,5.32.23,7.97.16,8.72-.23,17.38.38,26.02,1.58,0,0,0,0,0,0,0,0,0,0,0,0,2.09-.24,4.13-.04,6.13.62,3.45-.44,6.99.83,10.4-.52,0,0,0,0,0,0,0,0,0,0,0,0,1.49.15,2.98.3,4.46.45,4.52-.01,8.99.38,13.44,1.2,7.29-1.77,14.67-1.28,22.05-.92,2.57.13,2.88.53,3.12,3.05.36,3.72-.49,4.97-4.24,5.24-2.68.19-5.4-.14-8.1-.27-2.68-.13-5.39-.79-7.99.47,0,0,0,0,0,0-.66,1.14-1.71,1.52-2.93,1.37-1.6-.2-3.19-.51-4.79-.78h0s0,0,0,0c-4.33-.15-8.68-.08-12.94-1.1h0c-2.42-.19-4.85-.37-7.27-.56h0c-.72-.03-1.47.03-2.16-.14-.39-.1-.7-.57-1.04-.87.44-.18.88-.49,1.32-.5.72-.01,1.44.18,2.16.28,2.41.23,4.82.45,7.23.68,2.83-.48,5.93.99,8.52-1.18.16-2.02-2.01-2.68-2.51-4.32-1.21-.08-2.43-.16-3.64-.24,0,0,0,0,0,0,0,0,0,0,0,0-1.16.31-2.35.94-3.49.88-3.92-.22-7.84-.68-11.75-1.05-2.83.92-5.69,1.38-8.64.57h0c-8.55.08-17.1-.07-25.61.97,0,0,0,0,0,0-1.09.69-2.17,1.38-3.26,2.07,0,0,0,0,0,0,0,0,0,0,0,0,.45.22.9.44,1.36.66,1.45.03,2.89.05,4.33.07,0,0,0,0,0,0,.92-.3,1.85-.9,2.75-.85,3.63.22,7.25.64,11.19,1.01-2,2.24-4.1.46-5.98.75-2.16.34-4.38.35-6.57.5,0,0,0,0,0,0h0c-1.96-.11-3.93-.22-5.89-.33-1.95.23-3.89.46-5.84.69,0,0,0,0,0,0h0c-.52.04-1.04.09-1.56.13h0s-.6.3-.6.3l-.66-.13c-.91.96-2.02,1.11-3.24.8-.53.06-1.06.11-1.59.17,0,0,0,0,0,0-.48.36-.95.73-1.43,1.09-1.13.8-2.26,1.61-3.39,2.41,1.19.29,2.37.59,3.56.87,3.18.75,4.01,1.88,3.64,5.06-.12,1.02-.58,1.93-1.64,2.17-1.19.27-2.43.32-3.64.47q-5.99.72-7.58-4.99c-.72-2.62-.5-2.91,2.83-3.52.48-.09.97-.14,1.45-.2h0c-1.08-1.17-2.52-1.32-3.99-1.46-1.69-.16-3.38-.38-5.06-.57,0,0,0,0,0,0,0,0,0,0,0,0-3.63-.12-7.26-.16-10.89-.38-2.15-.13-2.98-1.14-3.11-3.24ZM416.58,269.41c-2.43-2.92-4.32-6.22-5.41-9.97,1.98-1.16,3.62-.32,5.22-.18,4.11.37,4.75.96,5.45,4.42.56,2.78-.14,3.71-4.31,5.61-.21.1-.48.06-.95.12ZM418.49,272.63c.03-.84.37-1.46,1.22-1.38.82.07,1.34.71,1.22,1.51-.09.65-.53,1.8-.78,1.79-1.09-.04-1.62-.87-1.66-1.92ZM415.71,543.28c.45-4.86.55-9.77.59-14.65.09-11.34.37-22.65,1.47-33.95.6-6.12.54-12.3.98-18.43.68-9.32,1.55-18.63,2.33-27.95.05-4.41.06-8.82.18-13.23.05-1.76,1.11-2.61,2.89-2.56,2.94.09,5.88.15,8.82.23,5.81-1.26,11.73-1.37,17.57-.92,10.6.82,21.14.11,31.7-.47,7.61-.42,15.22-.8,22.86-.39,4.89.27,9.8-.72,14.71-.04,1.22.17,2.48.07,3.68.29,3.34.61,5.62,3.09,5.89,6.48.12,1.45-.08,2.93-.13,4.39,1.23,4.53,1.18,9.2,1.43,13.82.71,13.25,1.07,26.51,1.92,39.75,1.21,18.87,2.77,37.71,4.11,56.57.61,8.58,1.12,17.17,1.57,25.77.17,3.31-.09,3.51-2.98,3.81-10.02,1.03-20.05,1.55-30.12,1.02-.5,0-1,0-1.51-.01-13.78.13-27.58-.04-41.34.5-8.17.32-16.24.06-24.35-.69-2.69-.25-5.42-.1-8.13-.14-2.96-.04-5.92.04-8.87-.14-3.71-.23-3.95-.62-4.25-4.51-.2-2.7-.4-5.4-.74-8.08-1.13-8.81-1.12-17.62-.3-26.46ZM414.63,587.77c.51.48.55.75-.1,1.06-1.16.52-2.2.39-2.97-.68-.08-.11.3-.74.57-.86.9-.37,1.73-.25,2.49.48ZM412.39,498.14q.69,2.86-.25,6.27c-1.16-2.24-.39-4.18.25-6.27Z"/>
            <path class="st0" d="M452.89,176.46c-.16-.1-.31-.24-.44-.43,0,0,0,0,0,0,.11.2.24.33.38.44.02,0,.04,0,.06,0Z"/>
            <path class="st0" d="M431.59,235.74s-.02.02-.03.04c0,0,0,.03,0,.03,0,0,.01-.03.03-.07Z"/>
            <path class="st0" d="M432.98,245.35c-.07.02-.13.02-.2.04.02.03.04.07.05.1.05-.05.1-.09.15-.13Z"/>
            <path class="st0" d="M444.6,234.01s-.01.03-.01.04h.08s-.04-.03-.06-.04Z"/>
            <path class="st0" d="M489.44,231.69c.12.01.24.02.35.04-.1-.19-.21-.38-.27-.6l-.08.57s0,0,0,0Z"/>
            <path class="st0" d="M480.36,229c.85-.17,1.7-.3,2.55-.42-.85,0-1.71.1-2.55.42Z"/>
            <path class="st0" d="M477.45,404.53s0,0,0,0c.07-.07.13-.14.19-.21-.06.05-.13.13-.2.21Z"/>
            <path class="st0" d="M472.7,591.46s.04.01.06.02c0-.02-.02-.05-.03-.07-.01.02-.02.04-.04.06Z"/>
            <path class="st0" d="M528.97,290.89c-.03-.32-.08-.49-.17-.5.06.18.1.35.16.53,0-.01,0-.02,0-.03Z"/>
            <path class="st0" d="M419.27,504.52c-.39,1.32-.74,2.64-.79,4-.05,1.15-.05,1.75.37,2.12.13-2.04.27-4.08.42-6.12Z"/>
            <path class="st0" d="M554.33,584.55c.37.5.73,1,1.09,1.5-.42-.46-.79-.95-1.09-1.5,0,0,0,0,0,0Z"/>
            <path class="st0" d="M484.85,590.57s-.04-.09-.05-.14c.03.04.03.1.05.14h0Z"/>
            <path class="st0" d="M458.5,591.33c-.01.06-.02.12-.05.18.03,0,.06,0,.08,0h0c-.02-.06-.02-.12-.04-.18Z"/>
            <path class="st0" d="M462.65,536.7c8.89-2.97,17.83-3.39,26.81-.42.19-.02.37-.03.56-.06.76-2.15,2.78-2.24,4.6-2.64,10.27-2.27,13.99-6.95,12.39-17.53-1.81-11.94-1.88-23.92-2.34-35.91-.08-1.97-.17-3.92.61-5.8.27-.56.67-.98,1.15-1.34,0,0,0-.01,0-.02-.04.03-.08.05-.08.05-5.35-4.61-8.87-10.31-10.27-17.26.1-.09.19-.18.28-.27,0,0,0-.01-.01-.02-.18.15-.35.29-.53.44-2.94.56-5.2-1.31-7.39-2.58-10.71-6.2-19.53-2.46-27.81,4.8-.27.24-.54.48-.8.72,1.06.61,2.29-.45,3.43-.61,0,0,0,0,0,0,0,0,0,0,0,0,2.55-.83,4.34-3.26,7.35-3.56.83,2.37,1.5,4.67,1.05,7.17-2.75.3-4.56,1.94-5.93,4.19.1,1.27-.31,2.26-1.51,2.84-.96,3.69-1.72,7.41-1.56,11.26-.01.01-.01.03-.03.04,0-.01.02-.03.03-.04-.06,1.65-.06,3.3-.21,4.94-.11,1.24-.72,2.22-2.04,2.56l-.57-.12-.58.04h0c-1.74.03-3.5.11-4.19-2.01-.35.2-.73.32-1.14.35.62.93.85,1.97.91,3.07.05.02.11.04.16.06,0,0,0,0,0,0,0,0,0,0,0,0,.81.01,1.63.03,2.44.04h0c.69.02,1.45-.13,2.07.09,2.49.87,2.6,1.96.52,4.46-1.03.49-2.07.99-3.1,1.49h0c-1.66.64-2.3.86-2.51.13-.16,1.47-.43,2.91-1.37,4.09.03.19.04.39.07.58,0,.03,0,.05,0,.08.71-.23,1.42-.46,2.13-.69,0,0,0,0,0,0,0,0,0,0,0,0,.93-.08,1.86-.16,2.79-.24.27-.95.68-1.95,1.84-1.77,1.27.2,1.13,1.4,1.14,2.34,0,1.28-.4,2.37-1.74,2.87,0,0,0,0,0,0,0,0,0,0,0,0-.52.05-1.03.09-1.55.14,0,0,0,0,0,0,0,0,0,0,0,0-.55.66-1.03.62-1.45-.13-.48-.14-.96-.29-1.44-.43,0,0,0,0,0,0h0c-.53.21-1.05.42-1.58.63,0,.07,0,.14,0,.2.01.64-.03,1.29-.08,1.93-.11,1.28,0,2.55.27,3.8.31-.26.61-.52.92-.77h0,0c.19-.35.23-.71.14-1.1,0,0,0,0,0,0,.22-.98.82-1.41,1.82-1.31,0,0,0,0,0,0,.88-.02,1.77-.04,2.65-.07,1.08-1.02,1.25-.41,1.17.65-.2,2.31-.4,4.62-.6,6.94,0,0,0,0,0,0h0c.09.45.17.9.26,1.35,1.23,1.33.79,3.03,1,4.58.76.24,1.25.73,1.39,1.53,4.22,1.73,8.76.73,13.09,1.47,3.82-.26,7.63-.98,11.47-.24,0,0,0,0,0,0,0,0,0,0,0,0,2.5-.09,5.11.09,6.66-2.53-1.4-4.79-.3-9.64-.29-14.46,0-2.68.07-5.32-.63-7.93.09-.7.12-1.42.28-2.1.22-.93.53-1.88,1.82-1.16,1.33.74,2.77.48,4.18.49h0c1.53-.41,1.74-.07,1.2,1.98-.05,1.26-.1,2.52-.15,3.77,0,0,0,0,0,0,0,0,0,0,0,0,1.11,5.17,1.48,10.41,1.29,15.69.16,2.58.44,5.17.43,7.75,0,1.63-.96,2.64-2.8,2.27-3.9.05-7.8.09-11.7.13,0,0,0,0,0,0-8.35,1.18-16.74,1.65-25.17,1.3,0,0,0,0,0,0-.92.26-1.83.7-2.76.73-2.03.08-2.42-1.2-2.1-2.9-.67-.78-.66-1.69-.55-2.64.14-1.18.37-2.37-.35-3.46-1.09.7-1.36,1.82-1.56,3-.17.96-.56,1.55-1.11,1.89-.2.39-.41.78-.69,1.17q-2.73,11.29,9.91,12.01ZM473.08,454.07c.09-.97.87-1.83,1.94-1.9,1.2-.07,2.45-.02,3.61.26,2.39.58,3.17,1.72,3.1,4.21-.03.98-.2,1.95-.29,2.92-.14,1.5-1.04,2.06-2.45,1.97-.49-.03-.97-.09-.89-.08q-4.19-.34-4.66-3.76c-.16-1.21-.47-2.44-.36-3.63ZM466.02,516.12l-.11-.47.42.1-.31.37ZM465.32,492.38c2.61-5.81,6-11.09,11.04-15.13,1.31-1.62,2.62-3.23,3.99-4.91,1.47,3.13,1.57,3.22.76,4.19-.9,1.07-2.01,1.95-3.03,2.91-2.9,5.97-7.37,10.82-11.29,16.04-1.41-.74-2.02-1.88-1.47-3.1ZM483.9,513.14c-.07,1.76-1.09,2.75-2.74,2.9-1.71.16-3.44.11-5.16.03-1.44-.06-2.18-1.41-1.39-2.53.99-1.41,2-2.82,3.18-4.06,1.65-1.73,3.46-3.3,6.45-6.12-.16,4.37-.25,7.07-.35,9.77ZM484.38,456.28c1.95-.21,2.84.72,3.9,1.26,1.84.94,2.18,2.39,1.69,4.28-.55,2.12-1.17,4.19-2.47,5.98-5.18-3.08-3.31-7.45-3.12-11.52ZM493.97,490.76c-.52-.02-1.22-.83-1.46-1.43-.81-2.03-.31-4.4-1.59-6.33-.34-3.03-.54-6.09-1.96-8.89-.98-.52-1.29-.99.08-1.36v-.02c1.3-2.32,2.59-4.63,4.04-7.23,2.38,1.21,3.53,3.31,4.3,5.5,1.62,4.62,2.57,9.4,2.45,14.33-.05,2.15-3.62,5.53-5.86,5.43ZM486.11,530.63c.28.1.64.77.54.99-.43.93-1.22,1.47-2.27,1.05-.29-.12-.38-.72-.56-1.1.45-1.06,1.3-1.3,2.28-.94ZM454.98,532c.51-1.03,1.4-1.11,2.42-1.09,3.16.07,6.31.08,9.47.11,0,0,0,0,0,0,0,0,0,0,0,0,1.44-.75,2.93-.77,4.46-.33,2.18.19,4.37.36,6.55.6.72.08.73.17.11,1.12-.1.16-.45.15-.68.22-.87.92-1.96,1.19-3.18,1.07-2.56-.24-5.12-.49-7.68-.73-2.42-.35-4.82-.08-7.2.36,0,0,0,0,0,0,0,0,0,0,0,0-1.04.02-2.08.04-3.13.06h0c-.95,0-1.55-.28-1.14-1.39,0,0,0,0,0,0Z"/>
            <path class="st0" d="M552.01,604.86l.32.54c-.07-.21-.13-.41-.2-.62-.04.03-.08.05-.12.08Z"/>
            <path class="st0" d="M536.15,266.27c-.66-.11-1.24-.39-1.72-.85-6.51-1.66-3.16,3.63-4.12,5.83.11.88.65,1.21,1.54,1.12.56.02,1.05.21,1.47.58.6,1.16.27,2.21-.32,3.24,1.16-.58,1.5-1.69,1.88-2.82.53-1.55,1.17-3.06,1.76-4.59,1.64-1.02,1.83-2.61,1.73-4.32,0,0,0,0,0,0h0c-.7.66-1.07,1.71-2.22,1.82Z"/>
          </g>
        </g>
        <rect class="st0" x="420.95" y="340.73" width="109.8" height="84.41"/>
      </g>
    </g>
    <path class="st2" d="M1115,232.82c2.43-1.58,6.58.1,10.52,4.19,1.9,1.97,3.86,4.42,5.83,7.17.43.59.78,1.24,1.11,1.91.16.33.32.7.45,1.02.04.12.04.27.07.41.11.55.39,1.15.94,1.42,1.09.5,2.36.35,3.53,0l.23-.09.12-.04.25-.13,1.08-.59c.71-.4,1.42-.79,2.13-1.18,1.41-.77,2.82-1.47,4.27-1.97,3.37-1.14,6.69-1.64,9.49-2.04,5.78-.84,9.78-.1,10.39,1.87.63,2.02-2.54,3.58-7.12,6.37-2.22,1.35-4.84,2.8-7.65,4.37-1.21.68-2.5,1.29-3.81,1.93-.66.32-1.32.65-1.98.98l-.99.52-.65.34-.8.4c-2.07.97-4.29,1.91-6.77,2.32-2.45.41-5.17.24-7.49-.96-2.39-1.22-4.52-2.94-6.11-5-.41-.51-.74-1.05-1.09-1.59-.25-.41-.4-.68-.59-1.02-.37-.65-.71-1.3-1.03-1.96-1.46-3.04-1.36-6.73-2.33-9.25-1.99-5.18-3.22-8.6-2-9.39Z"/>
    <path class="st2" d="M1179.51,200.64c.61-1.32,2.68-1.76,5.63-1.01,2.94.75,6.77,2.71,10.62,6.08,3.71,3.24,7.5,7.69,10.69,13.09.34.58.7,1.17.99,1.79.28.63.55,1.26.81,1.91.5,1.3,1.04,2.6,1.38,3.98.38,1.36.76,2.74,1.15,4.12.05.31.03.43.07.66.03.2.07.41.13.6l.14.44c.09.26.12.49.25.69.1.08.28.04.33-.07.07-.09.15-.17.24-.23.11-.07.23-.2.34-.32l.2-.23s.35-.36.57-.59l.8-.75c2.09-2.02,4.39-3.72,6.73-5.14,5.53-3.16,11.19-4.67,15.93-5.5,2.43-.49,4.7-.58,6.66-.69,1.99.04,3.7.11,5.1.36,2.82.55,4.38,1.35,4.48,2.38.09,1.04-1.29,1.9-3.73,2.72-1.21.43-2.66.98-4.34,1.49-1.63.66-3.52,1.24-5.45,2.16-3.79,1.67-8.01,3.85-12.08,6.78-1.71,1.32-3.52,2.6-5.19,4.13l-.64.56-.76.75c-.39.38-.78.78-1.18,1.22l-.59.65c-.19.23-.38.48-.56.73-.75.96-1.5,1.99-2.25,2.91-.78.77-1.55,1.54-2.33,2.32l-1.8,1.1c-.33.22-.52.29-.77.42l-.72.36c-.25.13-.45.22-.76.31-.31.08-.68.14-1.07.16-.8.04-1.7-.09-2.43-.31-.36-.11-.69-.23-.95-.34-.13-.08-.23-.05-.35-.2l-.33-.4-1.37-1.63c-.92-1.11-1.87-2.26-2.77-3.48-.23-.89-.45-1.76-.66-2.66-.56-2.37-1.12-4.73-1.67-7.08-.41-1.09-.81-2.18-1.22-3.26-.36-1.09-.89-2.1-1.32-3.13-.44-1.03-.86-2.06-1.35-3.03-1.03-2.31-1.84-4.66-2.69-6.93-.46-1.11-.86-2.25-1.37-3.27-.52-1.01-1.03-2.01-1.64-2.86-2.49-3.52-4.92-6.19-6.61-8.09-1.69-1.91-2.64-3.07-2.28-3.7Z"/>
  </g>
</svg>